<svg width="86" height="188" viewBox="0 0 86 188" fill="none" xmlns="http://www.w3.org/2000/svg">
<path d="M57.1275 161.378C56.9975 162.077 56.4515 162.488 56.0205 162.978C56.1565 163.249 56.1315 163.628 56.5195 163.732C57.1435 163.935 57.8475 164.026 58.0385 164.828C60.3295 163.573 60.3465 162.611 58.1105 160.828C57.6525 160.778 57.3355 160.981 57.1275 161.378Z" fill="#DBB275"/>
<path d="M68.7817 68.7061C68.8627 68.5521 68.9497 68.4011 69.0437 68.2541C68.8807 68.2731 68.7167 68.2911 68.5537 68.3101C68.6297 68.4421 68.7057 68.5741 68.7817 68.7061Z" fill="#F6F0DD"/>
<path d="M84.5226 0.000285544C84.8546 0.00528554 85.1986 0.131286 85.5106 -0.0867145C85.4736 -0.244714 85.3406 -0.328714 85.2376 -0.435714L85.1886 -0.531714C84.9376 -0.733714 84.6456 -0.851714 84.3476 -0.965714C84.2336 -0.982714 84.1276 -0.959714 84.0286 -0.900714C83.9456 -0.818714 83.8836 -0.723714 83.8456 -0.612714C83.7956 -0.103714 84.1716 -0.0657145 84.5226 0.000285544Z" fill="#D6A86C"/>
<path d="M84.5226 -0.000218444C84.2196 -0.177218 83.8586 -0.318218 84.0426 -0.790218C83.9386 -0.904218 83.8036 -0.919218 83.6606 -0.909218C83.5686 -0.896218 83.4806 -0.870218 83.3936 -0.835218C83.2236 -0.763218 83.1256 -0.587218 82.9466 -0.527218L82.9566 -0.532218C82.9146 -0.509218 82.8726 -0.487218 82.8306 -0.465218C82.8386 -0.418218 82.8466 -0.371218 82.8546 -0.324218C83.4346 -0.339218 83.8956 0.254782 84.5226 -0.000218444Z" fill="#E7CE95"/>
<path d="M81.3999 87.4113C81.1909 86.6333 80.6389 86.0873 79.9479 85.8423C78.6009 85.3633 77.7999 85.9593 77.4019 87.5733C77.9909 87.9933 78.7379 87.8693 79.3679 88.1543C80.0849 88.0163 80.9999 88.4143 81.3999 87.4113Z" fill="#E4C684"/>
<path d="M77.405 88.1346C78.81 89.8336 79.791 89.9186 81.371 88.4786C80.6 87.5116 79.356 88.6526 78.549 87.8416C78.122 87.7566 77.743 87.8686 77.405 88.1346Z" fill="#D0A061"/>
<path d="M78.6006 88.1077C79.4316 88.9287 80.4666 88.2137 81.3716 88.4777C81.6456 88.1297 81.6766 87.7747 81.3996 87.4107C80.6616 87.5637 79.9236 87.7167 79.1856 87.8697C78.8236 87.5387 78.6426 87.6537 78.6006 88.1077Z" fill="#F1E5B9"/>
<path d="M49.6513 103.254C49.9093 103.341 50.1163 103.298 50.1943 103.039C50.2883 102.728 50.1603 102.45 49.9313 102.253C49.7533 102.1 49.4973 102.109 49.3753 102.327C49.1583 102.716 49.3473 103.019 49.6513 103.254Z" fill="#F2E9C5"/>
<path d="M78.6008 88.1078C78.7958 88.0288 78.9908 87.9488 79.1858 87.8698C78.7808 86.6288 77.9758 87.7948 77.4018 87.5728C77.1908 87.7618 77.2328 87.9488 77.4058 88.1348C77.8038 88.1258 78.2018 88.1168 78.6008 88.1078Z" fill="#CA985A"/>
<path d="M60.4415 79.6774C60.3495 79.9074 60.4155 80.0894 60.6515 80.1504C60.7605 80.1784 60.9415 80.1444 61.0105 80.0674C61.1585 79.9004 61.1445 79.6794 60.9615 79.5404C60.7555 79.3834 60.5795 79.4964 60.4415 79.6774Z" fill="#DCB884"/>
<path d="M85.4394 129.819C85.6614 129.203 86.1964 129.264 86.6924 129.238C86.8704 129.233 87.0434 129.197 87.2104 129.134C87.6784 128.358 87.0174 128.215 86.5544 127.959C86.0234 127.84 85.5104 127.977 84.9944 128.074C84.9224 127.66 84.2384 129.101 84.4164 127.874C84.4724 127.492 84.2414 127.185 83.9344 126.955C83.6754 126.842 83.3964 126.796 83.1244 126.732C82.6584 126.584 82.3434 126.287 82.2054 125.812C81.7234 125.596 81.3664 125.91 80.9814 126.102C80.8244 126.28 80.6154 126.374 80.4044 126.465C80.3384 126.612 80.2724 126.758 80.2064 126.904C80.2694 127.134 80.2224 127.385 80.3394 127.603C80.4554 127.705 80.5904 127.771 80.7424 127.794C80.8824 127.786 81.0214 127.754 81.1564 127.707C81.3094 127.688 81.4464 127.72 81.5684 127.824C81.6474 127.979 81.6954 128.13 81.7004 128.297C81.5574 128.672 81.2304 128.852 80.9484 129.071C80.6504 129.265 80.3274 129.415 80.0064 129.568C79.9394 129.622 79.8734 129.679 79.8064 129.735C80.3394 130.423 80.3054 131.422 81.1634 131.955C82.7094 132.915 83.5514 132.727 85.3334 130.87C84.5774 130.44 85.5934 130.188 85.4394 129.819Z" fill="#D9B170"/>
<path d="M83.6933 127.068C84.3133 127.388 83.7473 128.757 84.9863 128.53C85.4233 128.291 85.8283 127.999 86.2723 127.771C86.7413 127.503 87.0553 127.126 87.1283 126.576C87.1613 125.803 86.4993 125.339 86.2833 124.675C85.8923 124.039 85.3873 123.947 84.8693 124.474C84.4163 124.934 84.0393 125.469 83.6283 125.971C83.6013 126.045 83.5743 126.118 83.5463 126.191C83.4783 126.424 83.4733 126.658 83.5323 126.893C83.5853 126.952 83.6393 127.01 83.6933 127.068Z" fill="#EBD999"/>
<path d="M69.274 119.77C69.844 118.99 70.147 118.185 69.506 117.292C68.969 117.125 68.391 117.078 67.913 116.735C67.316 116.46 66.706 116.426 66.079 116.62C65.673 116.82 65.362 117.114 65.176 117.531C65.198 118.699 65.784 119.293 66.958 119.283C67.197 119.199 67.398 118.661 67.705 119.217C67.87 119.311 68.043 119.35 68.225 119.337C68.864 118.769 68.864 119.771 69.274 119.77Z" fill="#E6CD93"/>
<path d="M68.0649 119.172C67.9169 119.089 67.7689 119.006 67.6209 118.923C67.5089 118.763 67.3809 118.748 67.2359 118.879C65.9809 119.212 65.7809 118.187 65.3719 117.431C65.3049 117.351 65.2389 117.27 65.1729 117.189C64.6629 117 64.1619 116.882 63.7409 117.376C63.6469 117.854 63.9319 118.154 64.2389 118.444C64.7759 118.895 65.2649 119.409 65.8899 119.75C66.0639 119.872 66.3839 120.01 66.2609 120.215C65.5449 121.41 66.2339 121.483 67.1509 121.365C67.5909 121.309 68.0409 121.226 68.3249 120.815C67.8879 120.323 67.6969 119.792 68.0649 119.172Z" fill="#DCB97E"/>
<path d="M65.3714 117.432C65.7874 117.397 66.0074 117.117 66.1834 116.782C66.3574 116.794 66.4684 116.716 66.5164 116.554C66.5924 116.288 66.8554 116.352 67.0414 116.27C67.1844 116.184 67.3004 116.076 67.3944 115.94C67.4714 115.789 67.5124 115.63 67.5264 115.462C67.5184 115.314 67.3954 115.118 67.4924 115.031C67.7174 114.831 67.3914 114.94 67.6004 115.166C67.7664 115.227 67.9294 115.223 68.0904 115.153C68.2254 115.021 68.2494 114.871 68.1644 114.704C67.9614 114.424 67.7584 114.144 67.5554 113.864C67.2894 113.805 67.1024 114.016 66.8684 114.068C65.4234 113.831 64.9274 115.084 64.1074 115.828C64.4634 116.406 65.1114 116.753 65.3614 117.415L65.3714 117.432Z" fill="#DCB97E"/>
<path d="M65.3614 117.414C65.5494 115.945 65.5494 115.945 64.1074 115.827C62.9404 116.431 61.9504 117.14 62.3654 118.703C62.4494 119.022 62.6974 119.173 62.9614 119.313C63.3454 119.152 63.7324 119.598 64.1164 119.309C64.2344 119.136 64.2724 118.946 64.2324 118.74C64.1204 118.252 63.1654 117.943 63.9224 117.271C64.3834 117.5 64.8774 117.41 65.3614 117.414Z" fill="#CFA578"/>
<path d="M58.4468 108.983C58.1978 109.596 58.8228 110.882 59.2908 110.981C59.8798 111.106 60.3338 110.852 60.5548 110.321C60.8518 109.611 60.5888 108.936 59.9538 108.647C59.4228 108.406 58.8248 108.723 58.4468 108.983Z" fill="#DAB282"/>
<path d="M80.8535 129.729C81.3765 129.14 82.8075 129.215 82.2415 127.83C81.7115 127.96 81.1955 127.997 80.7415 127.608C80.6265 127.562 80.5115 127.515 80.3965 127.469C79.8645 127.62 79.9565 128.327 79.4655 128.514C79.4105 128.968 79.5495 129.368 79.8065 129.735L79.9845 129.743C80.2715 129.597 80.5635 129.714 80.8535 129.729Z" fill="#E0C283"/>
<path d="M64.1728 118.878C64.1068 119.021 64.0408 119.163 63.9738 119.306C63.7348 119.386 63.4548 119.321 63.2478 119.513C63.6538 120.805 64.4928 120.134 65.2238 119.949C65.4218 119.83 65.6128 119.686 65.8658 119.726L65.8898 119.75C65.7028 118.989 65.2298 118.45 64.5658 118.061C64.1918 118.216 64.0608 118.489 64.1728 118.878Z" fill="#D09F65"/>
<path d="M68.0648 119.172C67.6998 119.791 66.9408 120.473 68.3248 120.815C68.7298 120.547 69.1438 120.287 69.2738 119.769C69.0098 119.38 69.2958 118.939 69.1988 118.38C68.7538 118.691 68.4088 118.931 68.0648 119.172Z" fill="#C6935D"/>
<path d="M68.0189 117.138C68.4069 118.228 68.9689 117.639 69.5059 117.291C69.5739 116.957 69.7329 116.61 69.3829 116.329C68.9639 116.28 68.5589 116.297 68.2139 116.587C68.0609 116.739 67.9919 116.922 68.0189 117.138Z" fill="#DAB678"/>
<path d="M68.2431 116.724C68.6741 116.739 69.0591 116.621 69.3831 116.329C69.1121 115.685 68.9621 114.952 68.1641 114.703C68.0941 114.831 68.0151 114.954 67.9271 115.07C67.4521 115.582 67.8151 116.032 68.0291 116.494C68.1001 116.571 68.1711 116.647 68.2431 116.724Z" fill="#C8955C"/>
<path d="M85.4395 129.819C84.9405 130.248 84.1655 130.193 83.6865 130.836C84.2505 131.378 84.8145 130.741 85.3345 130.87C85.5795 130.541 85.6355 130.193 85.4395 129.819Z" fill="#F2EAC3"/>
<path d="M82.4117 187.801C82.7697 187.866 83.0367 187.771 83.0907 187.412C83.1557 186.982 82.9327 186.638 82.5927 186.421C82.3267 186.251 81.9887 186.313 81.8687 186.625C81.6557 187.182 81.9647 187.547 82.4117 187.801Z" fill="#F2E9C5"/>
<path d="M82.2051 125.811C81.9351 126.639 82.0611 127.207 83.1021 127.175C83.2131 127.127 83.2851 127.054 83.3181 126.957C83.3511 126.858 83.3571 126.803 83.3371 126.793C83.3351 126.529 83.2441 126.31 83.0191 126.159C82.7481 126.043 82.4761 125.927 82.2051 125.811Z" fill="#BB7746"/>
<path d="M79.4653 128.514C80.0923 128.448 80.1503 127.874 80.3973 127.469C80.3333 127.28 80.2693 127.092 80.2063 126.904C79.8753 127.402 79.5283 127.893 79.4653 128.514Z" fill="#CB9755"/>
<path d="M62.4777 113.569C62.5767 113.65 62.6767 113.732 62.7767 113.813C62.8097 113.688 62.8607 113.564 62.8677 113.437C62.8707 113.394 62.7707 113.315 62.7077 113.302C62.5037 113.261 62.4247 113.361 62.4777 113.569Z" fill="#F5EFE2"/>
<path d="M66.8679 114.066C67.0969 113.998 67.3269 113.931 67.5559 113.863C67.5049 113.739 67.4599 113.511 67.4009 113.507C67.0289 113.483 66.9829 113.815 66.8679 114.066Z" fill="#C3925E"/>
<path d="M83.0195 126.159C83.0395 126.351 83.0595 126.543 83.0795 126.734C83.2365 126.873 83.3805 126.861 83.5105 126.696C83.6535 126.456 83.7185 126.204 83.6225 125.929L83.6285 125.971C83.4255 126.034 83.2225 126.097 83.0195 126.159Z" fill="#D9B170"/>
<path d="M63.2482 119.514C63.4902 119.445 63.7322 119.376 63.9742 119.306C63.6352 119.149 63.2972 119.067 62.9612 119.313L63.0862 119.439L63.2482 119.514Z" fill="#DDBB83"/>
<path d="M80.4041 126.465C80.5961 126.344 80.7891 126.224 80.9811 126.103C80.7141 126.104 80.5121 126.21 80.4041 126.465Z" fill="#E0C283"/>
<path d="M65.8661 119.726C65.6041 119.661 65.3911 119.74 65.2241 119.949C65.4381 119.875 65.6521 119.8 65.8661 119.726Z" fill="#DCB97E"/>
<path d="M80.7414 127.608C80.6724 127.99 80.6224 128.35 81.1624 128.436C81.6934 128.52 82.0124 128.264 82.2414 127.83C82.0584 127.596 81.8754 127.363 81.6924 127.129C81.4404 127.092 81.2194 127.178 81.0054 127.296C80.9394 127.419 80.8514 127.522 80.7414 127.608Z" fill="#FAF9E8"/>
<path d="M82.2461 131.493C82.3171 131.592 82.3731 131.757 82.4621 131.777C82.6871 131.828 82.8401 131.687 82.8021 131.458C82.7881 131.37 82.6141 131.239 82.5261 131.249C82.4251 131.26 82.3391 131.406 82.2461 131.493Z" fill="#EBD294"/>
<path d="M86.2048 128.163C86.1088 127.959 86.0128 127.756 85.9158 127.553C85.6058 127.879 85.2958 128.205 84.9858 128.531C85.4558 128.617 85.8368 128.414 86.2048 128.163Z" fill="#F0E0AD"/>
<path d="M80.8536 129.729C80.5596 129.457 80.2576 128.74 79.9836 129.743C80.2766 129.912 80.5676 129.948 80.8536 129.729Z" fill="#C89150"/>
<path d="M83.0793 126.735C83.1083 126.881 83.1163 127.028 83.1013 127.176C83.2983 127.14 83.4963 127.104 83.6933 127.068L83.6283 126.865C83.5513 126.839 83.4743 126.814 83.3973 126.789C83.2913 126.768 83.1853 126.75 83.0793 126.735Z" fill="#EBD999"/>
<path d="M81.0054 127.297C81.2344 127.241 81.4624 127.185 81.6924 127.129C81.4264 127.033 81.1974 127.087 81.0054 127.297Z" fill="#E0C283"/>
<path d="M83.3967 126.788C83.4757 126.808 83.5537 126.834 83.6287 126.865C83.8397 126.551 83.8547 126.239 83.6217 125.929C83.5467 126.215 83.4717 126.502 83.3967 126.788Z" fill="white"/>
<path d="M68.0191 117.138C68.0941 117 68.1681 116.862 68.2431 116.724L68.2391 116.717C67.9931 116.276 67.8391 115.726 67.1581 115.798C67.1011 115.918 67.0391 116.035 66.9711 116.149C66.7681 116.216 66.5111 116.138 66.3701 116.373C66.3031 116.507 66.2411 116.643 66.1831 116.782C66.7951 116.9 67.4071 117.019 68.0191 117.138Z" fill="#ECD9A4"/>
<path d="M67.236 118.879C67.366 118.879 67.495 118.894 67.621 118.924C67.763 118.672 67.896 118.404 67.642 118.163C67.567 118.092 67.337 118.077 67.26 118.139C66.987 118.357 67.062 118.625 67.236 118.879Z" fill="#F6F2D8"/>
<path d="M64.1729 118.878C64.3039 118.606 64.4349 118.333 64.5659 118.061C64.2329 117.894 63.9529 117.683 63.9219 117.27C62.9029 117.977 62.9309 118.156 64.1729 118.878Z" fill="#DDBB83"/>
<path d="M67.1577 115.798C67.5177 116.105 67.8787 116.411 68.2387 116.718C68.6027 116.081 67.9567 115.635 67.9277 115.072C67.8027 115.017 67.6787 114.961 67.5567 114.903C67.4397 114.935 67.3707 114.996 67.3527 115.085C67.3327 115.177 67.3357 115.228 67.3607 115.24C67.2927 115.426 67.2257 115.612 67.1577 115.798Z" fill="#DAB678"/>
<path d="M66.3702 116.373C66.5702 116.298 66.7712 116.224 66.9712 116.149C66.7562 116.184 66.3062 115.589 66.3702 116.373Z" fill="#E6CD93"/>
<path d="M1.20676 127.023C1.28776 126.869 1.37476 126.718 1.46876 126.571C1.30576 126.59 1.14176 126.609 0.97876 126.627C1.05476 126.759 1.13076 126.891 1.20676 127.023Z" fill="#F6F0DD"/>
<path d="M56.8599 88.5049C57.1119 88.7589 57.5109 88.3819 57.7449 88.7119C58.0539 88.3239 57.7759 87.8729 57.8799 87.4629C57.8479 87.3899 57.7939 87.3459 57.7159 87.3289C57.5659 87.3119 57.4199 87.3149 57.2889 87.4059C57.1499 87.5469 57.1559 87.7089 57.2199 87.8739C57.1869 87.9789 57.3449 87.9219 57.2329 87.9399C57.1029 87.9599 57.2139 87.8159 57.1409 87.7879C57.0559 87.7049 56.9539 87.6789 56.8399 87.6869C56.7629 87.7189 56.6999 87.7669 56.6469 87.8289C56.5739 87.9359 56.5389 88.0529 56.5409 88.1809C56.5849 88.3499 56.6429 88.5069 56.8599 88.5049Z" fill="#DEB874"/>
<path d="M80.7371 31.2845C80.8751 31.5305 81.0121 31.7765 81.1501 32.0225C82.7331 31.2795 81.0501 30.4025 81.2501 29.6025C80.9651 29.3525 80.7231 29.4395 80.5051 29.6995C80.5821 30.2275 80.6601 30.7565 80.7371 31.2845Z" fill="#CA985A"/>
<path d="M74.3113 110.022C74.3513 110.217 74.3603 110.415 74.3413 110.613C74.6053 110.564 74.8693 110.516 75.1333 110.469L75.0473 110.195C74.9433 110.162 74.8403 110.128 74.7363 110.094C74.5953 110.066 74.4533 110.042 74.3113 110.022Z" fill="#EBD999"/>
<path d="M49.0138 43.0868C48.8108 43.2548 48.7208 43.4348 48.9928 43.6138C49.2608 43.7908 49.5808 43.7518 49.8488 44.0988C50.2258 44.5878 50.8858 43.9678 51.4438 44.1458C51.6688 44.2168 51.7488 43.8728 51.8378 43.6718C51.7618 43.5338 51.6308 43.4608 51.5038 43.3878C51.4318 43.3448 51.3488 43.3168 51.2648 43.3038C51.1878 43.3068 51.1078 43.3158 51.0308 43.3268C50.9168 43.3288 50.8078 43.2978 50.6988 43.2598C50.5918 43.2318 50.4908 43.2398 50.4128 43.3048C50.4228 43.2948 50.3818 43.3078 50.3818 43.3078C50.3818 43.3078 50.4218 43.2298 50.4268 43.2218C50.5328 43.0038 50.4758 42.8098 50.3728 42.6188C50.3098 42.5468 50.2348 42.4888 50.1498 42.4418C49.8398 42.3368 49.5968 42.0218 49.2148 42.1368C49.0168 42.4268 49.1018 42.6958 49.2728 42.9578C49.3418 43.0468 49.4108 43.1398 49.5478 43.1048C49.4308 43.2088 49.3628 43.0698 49.2698 43.0488C49.1778 43.0188 49.0928 43.0328 49.0138 43.0868Z" fill="#E1C180"/>
<path d="M49.2749 42.1707C49.5859 42.2247 49.6589 42.8667 50.1329 42.5177C50.2869 42.4657 50.3599 42.3467 50.4009 42.1997C50.4379 41.9087 50.4219 41.6167 50.4279 41.3247C50.4269 41.2237 50.4109 41.1257 50.3849 41.0277C50.2999 40.8417 50.2169 40.6537 49.9609 40.6727C49.8629 40.7227 49.7659 40.7727 49.6689 40.8227L49.6449 40.9027C49.6079 40.9497 49.5599 40.9737 49.5009 40.9757C49.4419 41.0087 49.3949 40.9967 49.3609 40.9367C48.9949 41.1757 48.6189 41.4107 48.8339 41.9517C48.9269 42.1327 49.0689 42.2167 49.2749 42.1707Z" fill="#D1A464"/>
<path d="M49.9607 40.6732C50.0707 40.8202 50.1797 40.9662 50.2897 41.1132C50.3607 41.1672 50.4277 41.2242 50.4857 41.2852C50.5117 41.3092 50.5427 41.3342 50.5687 41.3592C50.6147 41.4042 50.6737 41.4372 50.7367 41.4552C50.7327 41.4562 50.7937 41.5242 50.7937 41.5242C50.7937 41.5242 50.7307 41.5892 50.7297 41.5922C50.7147 41.6652 50.7167 41.7332 50.7317 41.8042C50.7497 41.9262 50.7667 42.0462 50.7797 42.1682C50.7957 42.4552 50.7397 42.7652 51.0417 42.9552C51.3007 43.0932 51.5527 43.0802 51.7997 42.9262C51.7247 42.1912 52.6607 41.1852 51.2337 40.8122C50.9847 40.9552 50.8327 40.7932 50.6807 40.6332C50.4247 40.3642 50.1857 40.3822 49.9607 40.6732Z" fill="#E3C57F"/>
<path d="M51.2339 40.8119C51.5039 41.1399 52.0469 41.3729 51.5849 41.9419C51.3199 42.2669 52.0999 42.5199 51.6779 42.8819C51.4979 43.0159 51.3389 43.1599 51.4079 43.4189C51.4109 43.7419 51.6639 43.6409 51.8379 43.6719C52.3539 43.5969 52.4719 43.3099 52.2739 42.8549C52.3349 42.2739 52.4849 41.6959 52.3439 41.1069C51.9939 40.9349 51.7329 40.4239 51.2339 40.8119Z" fill="#D2A563"/>
<path d="M52.344 41.1065C52.08 41.6795 52.095 42.2635 52.273 42.8545C52.923 41.9775 52.923 41.9775 52.344 41.1065Z" fill="#E8CF94"/>
<path d="M49.2749 42.1708C49.1279 42.0978 48.9809 42.0248 48.8339 41.9518C48.8199 42.1268 48.8949 42.3228 48.7609 42.4728C48.4169 42.8598 48.7909 42.9398 49.0139 43.0868C49.1099 43.1168 49.2059 43.1458 49.3019 43.1748C49.4209 43.1398 49.4469 43.0708 49.3809 42.9658C49.3459 42.7008 49.3099 42.4358 49.2749 42.1708Z" fill="#D6B36C"/>
<path d="M46.2138 39.6366C46.1068 39.5916 45.9948 39.5856 45.9408 39.7016C45.8868 39.8186 45.9608 39.9006 46.0788 39.9036C46.1778 39.9066 46.3318 39.9016 46.3658 39.8446C46.4248 39.7436 46.2988 39.6846 46.2138 39.6366Z" fill="#E8D3A6"/>
<path d="M49.3606 40.937C49.3616 41.033 49.4006 41.082 49.4736 41.068C49.5076 41.061 49.5376 41.032 49.5696 41.013C49.6676 40.974 49.7026 40.905 49.6626 40.804L49.6686 40.823C49.5666 40.861 49.4636 40.899 49.3606 40.937Z" fill="#AB723C"/>
<path d="M50.9879 42.7482C50.9589 42.4762 51.2529 42.1792 50.9249 41.9302C50.7689 41.9512 50.6579 42.0432 50.5639 42.1602C50.4649 42.3262 50.3819 42.5012 50.2859 42.6692C50.2589 42.9092 50.2319 43.1492 50.2039 43.3892C50.2449 43.4722 50.3109 43.5052 50.4009 43.4862C50.5009 43.4492 50.6009 43.4112 50.7009 43.3742C50.7319 43.4662 50.7979 43.5172 50.8929 43.5332C50.9329 43.5142 50.9739 43.4962 51.0139 43.4782C51.0659 43.4062 51.0829 43.3252 51.0669 43.2382C50.9759 43.1582 50.8199 43.0862 51.0269 42.9602C51.0599 42.8812 51.0459 42.8102 50.9879 42.7482Z" fill="#C99757"/>
<path d="M50.9878 42.7479C50.9658 42.8209 50.9448 42.8939 50.9248 42.9679C50.9328 43.0779 50.9688 43.1779 51.0368 43.2649L51.0228 43.2739C51.0338 43.3689 51.0678 43.4149 51.1248 43.4139C51.1828 43.4119 51.2178 43.3999 51.2298 43.3759C51.2878 43.3949 51.3478 43.4089 51.4088 43.4199C51.4978 43.2399 51.5888 43.0609 51.6778 42.8809C51.4478 42.8369 51.2178 42.7929 50.9878 42.7479Z" fill="#F0E3AE"/>
<path d="M50.2858 42.669C50.5118 42.683 50.6208 42.544 50.6938 42.358C50.6338 42.159 50.4938 42.116 50.3088 42.161C50.2508 42.28 50.1918 42.399 50.1328 42.518C50.1898 42.562 50.2408 42.613 50.2858 42.669Z" fill="#8D5435"/>
<path d="M50.9224 43.4797C50.8484 43.4447 50.7744 43.4087 50.7004 43.3737C50.7504 43.6327 50.8604 43.7697 51.1284 43.5817C51.1114 43.4997 51.0754 43.4577 51.0204 43.4547C50.9644 43.4517 50.9324 43.4597 50.9224 43.4797Z" fill="#B07742"/>
<path d="M49.3808 42.9659C49.3498 43.0339 49.3238 43.1039 49.3018 43.1749C49.4018 43.2229 49.4978 43.3009 49.6098 43.2029C49.5338 43.1239 49.4568 43.0449 49.3808 42.9659Z" fill="#C39451"/>
<path d="M50.9224 43.48C50.9914 43.514 51.0594 43.548 51.1284 43.582C51.1624 43.513 51.1964 43.444 51.2294 43.375C51.1604 43.342 51.0924 43.308 51.0234 43.274C50.9894 43.343 50.9564 43.411 50.9224 43.48Z" fill="#D2A563"/>
<path d="M50.3094 42.1604C50.4374 42.2264 50.5664 42.2924 50.6944 42.3584C50.7714 42.2154 50.8484 42.0724 50.9244 41.9304C50.8914 41.8274 50.8584 41.7244 50.8244 41.6224C50.8124 41.5094 50.7634 41.4134 50.6954 41.3254V41.3264C50.5354 41.0634 50.3604 41.2794 50.1904 41.3094C50.1834 41.5994 50.1394 41.8954 50.3094 42.1604Z" fill="#BC8049"/>
<path d="M50.1907 41.3101C50.3587 41.3151 50.5267 41.3211 50.6947 41.3271C50.6737 41.0391 50.5307 40.9831 50.2897 41.1131L50.2417 41.2121L50.1907 41.3101Z" fill="#D2A563"/>
<path d="M49.2864 41.7497C49.2664 41.7277 49.2494 41.6907 49.2254 41.6857C49.1344 41.6667 49.1044 41.7067 49.1514 41.7827C49.1634 41.8027 49.2094 41.8117 49.2374 41.8077C49.2564 41.8047 49.2704 41.7697 49.2864 41.7497Z" fill="#B97F47"/>
<path d="M49.6626 40.8037C49.6316 40.8737 49.6006 40.9437 49.5696 41.0127C49.7296 41.0007 49.7376 40.9207 49.6626 40.8037Z" fill="white"/>
<path d="M50.906 41.4207C50.941 41.4197 51.004 41.4267 51.006 41.4167C51.024 41.3467 50.987 41.3487 50.908 41.4277L50.906 41.4207Z" fill="#D2A563"/>
<path d="M50.6951 41.326C50.6801 41.45 50.7221 41.55 50.8251 41.623C50.8461 41.553 50.8731 41.486 50.9061 41.421L50.9081 41.428C50.8371 41.394 50.7661 41.36 50.6951 41.326Z" fill="#D2A563"/>
<path d="M51.0367 43.2646C50.9997 43.1656 50.9617 43.0666 50.9247 42.9676C50.6027 43.2026 50.9777 43.1736 51.0367 43.2646Z" fill="#E3C57F"/>
</svg>
