<svg width="92" height="224" viewBox="0 0 92 224" fill="none" xmlns="http://www.w3.org/2000/svg">
<path d="M56.3716 197.005C56.2416 197.704 55.6956 198.115 55.2646 198.605C55.4006 198.876 55.3756 199.255 55.7636 199.359C56.3876 199.562 57.0916 199.653 57.2826 200.455C59.5736 199.2 59.5906 198.238 57.3546 196.455C56.8966 196.405 56.5796 196.608 56.3716 197.005Z" fill="#DBB275"/>
<path d="M68.0259 104.333C68.1069 104.179 68.1939 104.028 68.2879 103.881C68.1249 103.9 67.9609 103.918 67.7979 103.937C67.8739 104.069 67.9499 104.201 68.0259 104.333Z" fill="#F6F0DD"/>
<path d="M81.327 18.004C81.499 18.204 81.681 18.29 81.854 18.015C82.026 17.743 81.98 17.424 82.322 17.149C82.803 16.762 82.171 16.115 82.338 15.553C82.405 15.327 82.058 15.254 81.856 15.169C81.719 15.248 81.65 15.38 81.579 15.508C81.537 15.582 81.511 15.664 81.5 15.749C81.504 15.826 81.515 15.905 81.527 15.983C81.531 16.097 81.503 16.207 81.466 16.316C81.441 16.423 81.451 16.524 81.517 16.601C81.507 16.591 81.521 16.632 81.521 16.632C81.521 16.632 81.442 16.594 81.434 16.588C81.214 16.487 81.021 16.547 80.833 16.654C80.761 16.719 80.705 16.795 80.66 16.881C80.561 17.193 80.251 17.442 80.373 17.822C80.667 18.014 80.935 17.924 81.194 17.747C81.281 17.676 81.372 17.606 81.335 17.47C81.441 17.585 81.303 17.655 81.283 17.749C81.256 17.841 81.271 17.926 81.327 18.004Z" fill="#E1C180"/>
<path d="M84.6079 29.3598C83.8789 29.3918 83.1089 29.2758 82.5449 29.9188C82.5469 30.1238 82.6589 30.2758 82.7839 30.4218C83.0149 30.5268 83.2309 30.6318 82.8019 30.7738C82.7599 30.8598 82.7409 30.9508 82.7479 31.0468C82.7889 31.1358 82.8549 31.2008 82.9419 31.2448C83.0809 31.2868 83.2239 31.2948 83.3679 31.2878C83.4639 31.2828 83.5569 31.2618 83.6479 31.2308C83.8259 31.1488 83.9649 31.0288 84.0209 30.8328C84.0469 30.5128 84.2919 30.3748 84.5289 30.2288C84.7949 29.9598 85.0969 29.6948 84.6079 29.3598Z" fill="#E1BD7B"/>
<path d="M75.9325 27.8684C75.2675 27.5774 74.8175 28.0244 74.4495 28.4134C74.0355 28.8504 73.7665 29.4204 74.1555 30.0524C74.4145 30.0454 74.6225 30.2474 74.8845 30.2304C75.1745 30.1634 75.3175 29.9854 75.2975 29.6844C75.2975 29.3134 75.2745 28.9384 75.4625 28.5964C75.5695 28.4574 75.7035 28.3444 75.8275 28.2224C75.8565 28.1884 75.8835 28.1544 75.9115 28.1204C75.9275 28.0794 75.9425 28.0384 75.9585 27.9974C75.9505 27.9544 75.9415 27.9114 75.9325 27.8684Z" fill="#DEBE75"/>
<path d="M81.8657 30.3812C81.6747 30.6152 81.8207 30.9822 81.4057 31.1722C80.8767 31.4132 81.0927 32.0072 81.0707 32.4702C81.0817 32.5232 81.0937 32.5762 81.1047 32.6292C81.6907 32.8482 81.9897 32.4132 82.3387 32.0902C82.4707 31.9382 82.5977 31.7812 82.6587 31.5832C82.6707 31.3872 82.5607 31.2262 82.5007 31.0512C82.4707 30.9172 82.4577 30.7812 82.4497 30.6442C82.4067 30.2192 82.1887 30.1822 81.8657 30.3812Z" fill="#D8A866"/>
<path d="M80.4057 17.7614C80.4537 17.4494 81.0947 17.3634 80.7357 16.8964C80.6807 16.7434 80.5597 16.6724 80.4127 16.6354C80.1207 16.6034 79.8297 16.6254 79.5367 16.6254C79.4357 16.6284 79.3377 16.6464 79.2417 16.6744C79.0567 16.7624 78.8707 16.8504 78.8947 17.1054C78.9467 17.2014 78.9987 17.2974 79.0507 17.3944L79.1307 17.4164C79.1777 17.4524 79.2037 17.4994 79.2067 17.5584C79.2407 17.6174 79.2287 17.6644 79.1707 17.7004C79.4167 18.0614 79.6587 18.4324 80.1947 18.2064C80.3747 18.1104 80.4557 17.9664 80.4057 17.7614Z" fill="#D1A464"/>
<path d="M78.8948 17.1055C79.0388 16.9935 79.1838 16.8805 79.3278 16.7675C79.3798 16.6955 79.4368 16.6275 79.4958 16.5685C79.5198 16.5425 79.5448 16.5105 79.5678 16.4835C79.6128 16.4375 79.6448 16.3775 79.6618 16.3145C79.6628 16.3185 79.7288 16.2555 79.7288 16.2555C79.7288 16.2555 79.7958 16.3175 79.7988 16.3185C79.8708 16.3315 79.9398 16.3285 80.0108 16.3125C80.1318 16.2925 80.2508 16.2725 80.3738 16.2575C80.6598 16.2355 80.9708 16.2855 81.1548 15.9795C81.2878 15.7185 81.2698 15.4665 81.1108 15.2225C80.3778 15.3115 79.3538 14.3965 79.0088 15.8295C79.1568 16.0765 78.9978 16.2315 78.8408 16.3865C78.5768 16.6475 78.5998 16.8865 78.8948 17.1055Z" fill="#E3C57F"/>
<path d="M85.7805 34.5693C86.3785 34.3493 86.7565 33.9083 86.9285 33.2313C86.6975 32.5373 86.1595 32.8553 85.7145 32.8603C85.4055 32.9943 85.1605 33.1903 85.0745 33.5353C85.0605 33.6983 85.1335 33.8273 85.2345 33.9453C85.3245 34.0523 85.4195 34.1563 85.5035 34.2703C85.5525 34.3473 85.6105 34.4173 85.6775 34.4803C85.7115 34.5103 85.7455 34.5393 85.7805 34.5693Z" fill="#CB975C"/>
<path d="M79.0083 15.8291C79.3313 15.5531 79.5523 15.0051 80.1313 15.4561C80.4613 15.7141 80.6993 14.9301 81.0683 15.3441C81.2063 15.5211 81.3543 15.6781 81.6113 15.6031C81.9343 15.5941 81.8283 15.3441 81.8563 15.1681C81.7703 14.6541 81.4813 14.5421 81.0303 14.7491C80.4483 14.6991 79.8673 14.5601 79.2813 14.7131C79.1163 15.0671 78.6103 15.3371 79.0083 15.8291Z" fill="#D2A563"/>
<path d="M80.465 35.0144L80.553 35.0814L80.659 35.1104C80.978 34.9544 81.597 35.1454 81.439 34.4364C81.317 34.2914 81.125 34.1884 81.147 33.9554C81.16 33.7464 81.255 33.6004 81.458 33.5314C81.589 33.4474 81.666 33.3274 81.696 33.1764C81.695 33.0744 81.665 32.9834 81.603 32.9024C81.474 32.7454 81.239 32.7534 81.113 32.5904C81.096 32.5514 81.082 32.5114 81.071 32.4704C80.52 33.0114 80.292 33.6924 80.219 34.4394L80.218 34.4374C80.162 34.5604 80.209 34.6574 80.293 34.7464C80.354 34.8334 80.412 34.9224 80.465 35.0144Z" fill="#D19F60"/>
<path d="M73.4025 29.9932C73.2975 29.6032 73.0205 29.3292 72.6745 29.2062C71.9985 28.9662 71.5965 29.2642 71.3975 30.0742C71.6925 30.2852 72.0675 30.2232 72.3835 30.3662C72.7425 30.2962 73.2015 30.4962 73.4025 29.9932Z" fill="#E4C684"/>
<path d="M85.7233 31.9165C85.8613 31.9905 85.9993 32.0645 86.1373 32.1375C86.1853 32.2235 86.2533 32.2375 86.3363 32.1895C86.3393 31.9485 86.2963 31.7025 86.4293 31.4785C86.5993 31.4515 86.7703 31.4165 86.9393 31.4865C86.9963 31.5105 87.0523 31.5345 87.1093 31.5585C87.1963 31.3915 87.3133 31.2325 87.3653 31.0555C87.4543 30.7555 87.3223 30.6295 87.0133 30.7115C86.8323 30.8465 86.6703 30.6965 86.5003 30.6745C86.3103 30.6935 86.1493 30.7815 85.9933 30.8825C85.8023 31.0115 85.5873 31.1055 85.4153 31.2655C85.3603 31.3445 85.3343 31.4335 85.3333 31.5305C85.4003 31.7235 85.5323 31.8495 85.7233 31.9165Z" fill="#D7A86B"/>
<path d="M77.1695 29.1228C76.9165 28.6568 76.8105 28.0848 76.2485 27.8408C76.1375 27.7918 76.0315 27.7918 75.9325 27.8688L75.9295 27.8518C75.9925 27.9168 75.9915 27.9798 75.9235 28.0408C75.8815 28.0778 75.8475 28.0908 75.8235 28.0798L75.8445 28.0668C75.6315 28.1528 75.5885 28.3398 75.5645 28.5388C75.6275 28.8958 75.8585 29.1208 76.1605 29.2898C76.5205 29.3818 76.9215 29.7088 77.1695 29.1228Z" fill="#DFBC7E"/>
<path d="M77.1695 29.1234C76.7845 29.3924 76.4735 29.1004 76.1385 28.9884C76.0495 29.0334 75.9785 29.0974 75.9275 29.1834C75.8525 29.3734 75.8515 29.5704 75.8665 29.7694C75.8785 29.8694 75.9085 29.9644 75.9535 30.0554C76.1045 30.2504 76.2285 30.4924 76.5445 30.4134C77.4125 29.8254 77.4125 29.8254 77.1695 29.1234Z" fill="#E0BE7F"/>
<path d="M84.6078 29.359C84.8668 29.819 84.4728 29.983 84.2218 30.212C84.0438 30.751 84.4988 30.539 84.7068 30.623C84.8488 30.619 84.9878 30.593 85.1248 30.554C85.2118 30.53 85.2978 30.497 85.3808 30.459C85.4608 30.421 85.5368 30.373 85.6088 30.32C85.7138 30.24 85.8118 30.151 85.8988 30.051C85.9538 29.978 85.9688 29.896 85.9458 29.807C85.5228 29.591 85.2068 29.052 84.6078 29.359Z" fill="#EED79F"/>
<path d="M85.6783 34.2317C85.6753 34.0897 85.6243 33.9717 85.5033 33.8907C85.2763 34.0327 85.0333 33.9787 84.7923 33.9487C84.4583 34.0487 84.4453 34.3727 84.3233 34.6217C84.2793 34.7627 84.2803 34.9037 84.3223 35.0457C84.3613 35.1347 84.4203 35.2087 84.4993 35.2667C84.6263 35.3347 84.7793 35.3157 84.9053 35.3867C85.3783 35.3087 85.2923 34.6307 85.7803 34.5697C85.7793 34.5297 85.7783 34.4887 85.7753 34.4487C85.7393 34.3787 85.7063 34.3057 85.6783 34.2317Z" fill="#DDB767"/>
<path d="M75.9906 29.9333C76.0246 29.8533 76.0586 29.7733 76.0926 29.6923C75.9426 29.5463 75.6816 29.5973 75.5626 29.3933C75.3166 29.4043 75.0276 29.3623 75.0976 29.7653C75.1966 30.0443 74.9066 30.0343 74.8016 30.1623C74.6056 30.1633 74.4646 30.2313 74.4536 30.4533C74.6756 30.7053 74.8236 31.1093 75.2896 30.8563C75.3326 30.6223 75.5036 30.4923 75.6896 30.3743C75.8406 30.2623 76.0076 30.1593 75.9906 29.9333Z" fill="#EDD7A0"/>
<path d="M71.3987 30.3558C72.1037 31.2078 72.5957 31.2508 73.3877 30.5278C73.0017 30.0428 72.3767 30.6158 71.9727 30.2088C71.7577 30.1658 71.5687 30.2218 71.3987 30.3558Z" fill="#D0A061"/>
<path d="M79.2812 14.7137C79.8593 14.9657 80.4432 14.9397 81.0302 14.7497C80.1402 14.1177 80.1403 14.1177 79.2812 14.7137Z" fill="#E8CF94"/>
<path d="M83.7667 35.6272C84.0987 35.6322 84.4427 35.7582 84.7547 35.5402C84.7177 35.3822 84.5847 35.2982 84.4817 35.1912L84.4327 35.0952C84.1817 34.8942 83.8897 34.7752 83.5917 34.6622C83.4777 34.6442 83.3717 34.6672 83.2727 34.7262C83.1897 34.8082 83.1277 34.9032 83.0897 35.0142C83.0397 35.5232 83.4157 35.5612 83.7667 35.6272Z" fill="#D6A86C"/>
<path d="M81.2587 34.4202C81.3797 34.6262 81.3177 34.7702 81.0947 34.8172C80.9017 34.8582 80.7637 34.9532 80.6587 35.1102C81.0507 35.4232 81.4967 35.0182 81.8977 35.2042C81.9417 35.2082 81.9847 35.2122 82.0287 35.2162C82.1157 35.1992 82.1967 35.1662 82.2737 35.1202C82.2947 35.0812 82.3167 35.0422 82.3377 35.0042C82.3487 34.9122 82.3257 34.8292 82.2707 34.7552C82.2077 34.6912 82.1377 34.6352 82.0637 34.5842C81.8757 34.4562 81.7557 34.2372 81.5177 34.1762C81.3627 34.1852 81.2337 34.2212 81.2587 34.4202Z" fill="#E1BD83"/>
<path d="M85.9464 29.8077C85.9124 29.8677 85.8784 29.9277 85.8454 29.9877C85.7704 30.0117 85.7274 30.0517 85.7154 30.1107C85.7034 30.1707 85.7064 30.2037 85.7214 30.2117C85.9494 30.4417 86.0404 30.8667 86.5034 30.7717C86.6844 30.8487 86.8614 30.8827 87.0134 30.7117C86.7374 30.6157 86.5794 30.4137 86.5704 30.1297C86.5544 29.6257 86.2394 29.7487 85.9464 29.8077Z" fill="#E6C78D"/>
<path d="M83.7667 35.6267C83.4637 35.4497 83.1027 35.3087 83.2867 34.8367C83.1827 34.7227 83.0477 34.7077 82.9047 34.7177C82.8127 34.7307 82.7247 34.7567 82.6377 34.7917C82.4677 34.8637 82.3697 35.0397 82.1907 35.0997L82.2007 35.0947C82.1587 35.1177 82.1167 35.1397 82.0747 35.1617C82.0827 35.2087 82.0907 35.2557 82.0987 35.3027C82.6787 35.2877 83.1397 35.8817 83.7667 35.6267Z" fill="#E7CE95"/>
<path d="M71.9983 30.3427C72.4153 30.7547 72.9343 30.3957 73.3883 30.5287C73.5263 30.3537 73.5413 30.1757 73.4023 29.9927C73.0323 30.0697 72.6623 30.1467 72.2913 30.2227C72.1103 30.0577 72.0193 30.1147 71.9983 30.3427Z" fill="#F1E5B9"/>
<path d="M80.4058 17.7604C80.3358 17.9084 80.2658 18.0574 80.1948 18.2054C80.3708 18.2164 80.5648 18.1374 80.7178 18.2684C81.1118 18.6044 81.1848 18.2294 81.3268 18.0034C81.3548 17.9064 81.3818 17.8104 81.4088 17.7134C81.3718 17.5954 81.3018 17.5704 81.1988 17.6394C80.9348 17.6794 80.6698 17.7194 80.4058 17.7604Z" fill="#D6B36C"/>
<path d="M81.8657 30.3812C82.1627 30.3752 82.3587 30.4452 82.1817 30.7982C82.3357 30.9722 82.5097 30.9492 82.6907 30.8492C82.8577 30.7222 82.8417 30.5222 82.8887 30.3482C82.8777 30.1222 82.7157 30.0162 82.5457 29.9192C82.1337 29.8012 81.9637 30.0382 81.8657 30.3812Z" fill="#DDB270"/>
<path d="M75.573 30.2318C75.355 30.2298 75.141 30.2738 75.04 30.4818C74.927 30.7138 75.163 30.7588 75.289 30.8568C75.466 30.8968 75.641 30.9738 75.826 30.8938C75.94 30.5978 76.261 30.2218 75.573 30.2318Z" fill="#D9AE6B"/>
<path d="M75.573 30.2315C76.029 30.3105 75.641 30.7115 75.826 30.8935C76.069 30.9205 76.234 30.7575 76.421 30.6475C76.512 30.5955 76.552 30.5175 76.541 30.4135H76.545C76.349 30.2665 76.26 29.9955 75.99 29.9335C75.851 30.0325 75.712 30.1325 75.573 30.2315Z" fill="#C69056"/>
<path d="M71.9984 30.3425C72.0964 30.3025 72.1944 30.2625 72.2914 30.2225C72.0884 29.6005 71.6854 30.1855 71.3974 30.0745C71.2914 30.1685 71.3124 30.2625 71.3984 30.3555C71.5984 30.3515 71.7984 30.3465 71.9984 30.3425Z" fill="#CA985A"/>
<path d="M74.4533 30.4541C74.5703 30.3571 74.6863 30.2601 74.8023 30.1621C74.6433 29.7901 74.4173 29.8151 74.1553 30.0541C74.2203 30.2131 74.2653 30.3871 74.4533 30.4541Z" fill="#C5874F"/>
<path d="M77.9324 20.8715C77.8894 20.9795 77.8854 21.0915 78.0024 21.1425C78.1204 21.1945 78.2014 21.1185 78.2024 21.0015C78.2024 20.9025 78.1954 20.7485 78.1364 20.7155C78.0354 20.6585 77.9784 20.7855 77.9324 20.8715Z" fill="#E8D3A6"/>
<path d="M84.4818 35.191C84.4738 35.385 84.6108 35.465 84.7548 35.54C84.8158 35.5 84.8658 35.448 84.9058 35.387C84.8758 35.08 84.6628 35.17 84.4818 35.191Z" fill="#BA7C4A"/>
<path d="M79.1705 17.7002C79.2665 17.6972 79.3145 17.6572 79.2985 17.5842C79.2915 17.5502 79.2615 17.5212 79.2425 17.4902C79.2015 17.3922 79.1325 17.3592 79.0315 17.4012L79.0505 17.3942C79.0905 17.4962 79.1305 17.5982 79.1705 17.7002Z" fill="#AB723C"/>
<path d="M81.8977 35.2045C81.8857 35.3205 81.7077 35.4465 81.9047 35.5405C81.9257 35.5515 82.0317 35.3865 82.0987 35.3035L82.1037 35.3155C82.0607 35.2155 81.9867 35.1805 81.8817 35.2085L81.8977 35.2045Z" fill="#E2C5AC"/>
<path d="M76.5411 30.4134C76.5011 30.4914 76.4611 30.5694 76.4211 30.6474C76.6181 30.6494 76.6921 30.5894 76.5411 30.4134Z" fill="#E0BE7F"/>
<path d="M80.465 35.0137C80.408 34.9247 80.35 34.8357 80.293 34.7457C80.295 34.8707 80.339 34.9687 80.465 35.0137Z" fill="#E1BD83"/>
<path d="M80.9488 16.0366C80.6778 16.0706 80.3748 15.7826 80.1328 16.1156C80.1568 16.2716 80.2508 16.3806 80.3698 16.4726C80.5378 16.5676 80.7138 16.6466 80.8838 16.7396C81.1248 16.7626 81.3648 16.7856 81.6058 16.8076C81.6878 16.7656 81.7188 16.6986 81.6988 16.6086C81.6588 16.5096 81.6198 16.4106 81.5798 16.3116C81.6718 16.2786 81.7218 16.2116 81.7358 16.1166C81.7168 16.0766 81.6968 16.0366 81.6778 15.9966C81.6048 15.9466 81.5238 15.9306 81.4368 15.9476C81.3588 16.0406 81.2908 16.1986 81.1598 15.9936C81.0798 15.9626 81.0098 15.9776 80.9488 16.0366Z" fill="#C99757"/>
<path d="M80.949 16.0367C81.022 16.0567 81.096 16.0767 81.17 16.0957C81.28 16.0857 81.379 16.0477 81.465 15.9777L81.474 15.9907C81.569 15.9787 81.614 15.9437 81.612 15.8867C81.609 15.8287 81.596 15.7947 81.572 15.7827C81.59 15.7237 81.603 15.6637 81.612 15.6027C81.431 15.5167 81.25 15.4297 81.069 15.3437C81.029 15.5747 80.989 15.8057 80.949 16.0367Z" fill="#F0E3AE"/>
<path d="M80.884 16.7405C80.894 16.5145 80.752 16.4085 80.565 16.3385C80.368 16.4025 80.327 16.5435 80.375 16.7275C80.496 16.7835 80.616 16.8405 80.736 16.8965C80.779 16.8385 80.829 16.7865 80.884 16.7405Z" fill="#8D5435"/>
<path d="M81.6818 16.0885C81.6478 16.1635 81.6138 16.2375 81.5798 16.3125C81.8388 16.2575 81.9738 16.1455 81.7798 15.8805C81.6988 15.8995 81.6568 15.9355 81.6548 15.9915C81.6528 16.0465 81.6618 16.0795 81.6818 16.0885Z" fill="#B07742"/>
<path d="M81.1985 17.6398C81.2675 17.6688 81.3375 17.6938 81.4085 17.7148C81.4545 17.6138 81.5305 17.5158 81.4305 17.4058C81.3535 17.4838 81.2755 17.5618 81.1985 17.6398Z" fill="#C39451"/>
<path d="M81.6819 16.0879C81.7149 16.0189 81.7469 15.9489 81.7799 15.8799C81.7099 15.8479 81.6409 15.8149 81.5709 15.7829C81.5389 15.8529 81.5069 15.9219 81.4739 15.9909C81.5439 16.0239 81.6129 16.0559 81.6819 16.0879Z" fill="#D2A563"/>
<path d="M82.6172 31.4755C82.4832 31.5835 82.3482 31.6915 82.2142 31.7995C82.2402 31.8695 82.2612 31.9405 82.2772 32.0135C82.2902 32.1455 82.1982 32.2145 82.1102 32.2855C82.0182 32.3595 81.9412 32.4475 81.8732 32.5445C81.8012 32.6415 81.7022 32.7145 81.6272 32.8095C81.5822 32.8825 81.5732 32.9605 81.5982 33.0425L81.6262 33.0615C81.6552 33.1575 81.7122 33.2335 81.7922 33.2925C81.8832 33.3325 81.9782 33.3515 82.0772 33.3495C82.1732 33.3355 82.2642 33.3055 82.3512 33.2655C82.3902 33.2405 82.4292 33.2135 82.4682 33.1885C82.5372 33.1325 82.5992 33.0675 82.6582 33.0015C82.7692 32.8825 82.8882 32.7705 83.0592 32.7415C83.1402 32.7335 83.2192 32.7185 83.2982 32.7035C83.3772 32.6835 83.4522 32.6525 83.5232 32.6135C83.6332 32.5605 83.7472 32.5175 83.8652 32.4835C83.9482 32.4605 84.0192 32.4185 84.0802 32.3595C84.1242 32.2885 84.1452 32.2105 84.1482 32.1275C84.1342 32.0095 84.0912 31.9025 84.0222 31.8075C83.9262 31.6185 84.1662 31.7075 84.1862 31.6125C84.2862 31.4965 84.3192 31.3665 84.2832 31.2175C84.0612 30.9905 83.8032 31.1535 83.5602 31.1485L83.5192 31.1605C83.3542 31.1985 83.1882 31.2265 83.0202 31.1745C82.9562 31.1455 82.8922 31.1175 82.8272 31.0895C82.7372 30.8485 82.6102 30.9675 82.4862 31.0555C82.4312 31.2265 82.5382 31.3465 82.6172 31.4755Z" fill="#E3C07A"/>
<path d="M84.85 30.507C84.673 30.339 84.32 30.547 84.222 30.212C83.666 30.227 83.629 30.467 83.943 30.858C84.012 31.035 84.178 31.084 84.331 31.149C84.699 31.202 84.846 30.995 84.895 30.672C84.881 30.617 84.865 30.562 84.85 30.507Z" fill="#E6C680"/>
<path d="M82.5119 31.1983C82.6169 31.1623 82.7219 31.1263 82.8269 31.0903C82.8539 31.0153 82.8799 30.9393 82.9059 30.8643C82.8819 30.7503 82.8159 30.7133 82.7059 30.7533C82.5319 30.7683 82.3559 30.7833 82.1809 30.7983C82.2249 30.9153 82.2689 31.0333 82.3119 31.1503C82.3619 31.2353 82.4289 31.2483 82.5119 31.1983Z" fill="#BB7C43"/>
<path d="M82.7066 30.7542C82.7686 30.7982 82.8356 30.8352 82.9056 30.8652C83.1256 30.6852 83.2566 30.5082 82.8886 30.3482C82.6006 30.3812 82.7346 30.6042 82.7066 30.7542Z" fill="#E7C782"/>
<path d="M84.3608 31.0355C84.2218 30.9765 84.0818 30.9165 83.9428 30.8575C83.8148 30.9555 83.6878 31.0515 83.5598 31.1485C83.7738 31.2995 84.0068 31.2305 84.2348 31.2065C84.3078 31.2015 84.3498 31.1745 84.3628 31.1255C84.3778 31.0725 84.3768 31.0425 84.3608 31.0355Z" fill="#D19D5A"/>
<path d="M83.0205 31.1752C83.1985 31.5742 83.3555 31.2402 83.5195 31.1612C83.3505 31.0792 83.1835 31.0542 83.0205 31.1752Z" fill="#EED79B"/>
<path d="M75.0971 29.7656C75.2291 29.5516 75.4221 29.4666 75.6691 29.4996C75.8921 29.4826 75.9191 29.2476 76.0631 29.1436C76.0831 29.0896 76.1081 29.0386 76.1391 28.9886C75.9621 28.8056 75.7861 28.6236 75.6101 28.4406C75.5641 28.4246 75.5191 28.4086 75.4741 28.3926C75.3341 28.4346 75.1941 28.4766 75.0541 28.5176C75.2071 28.9286 74.7781 29.3606 75.0971 29.7656Z" fill="#BD7C4E"/>
<path d="M75.4744 28.3924C75.5214 28.4044 75.5664 28.4204 75.6104 28.4404C75.6884 28.3164 75.7664 28.1914 75.8444 28.0674C75.6174 28.0574 75.5304 28.2074 75.4744 28.3924Z" fill="white"/>
<path d="M75.824 28.0801C76.011 28.0751 76.018 27.9851 75.929 27.8521C75.894 27.9281 75.859 28.0041 75.824 28.0801Z" fill="white"/>
<path d="M82.389 31.912C82.328 31.879 82.27 31.842 82.214 31.801C81.966 32.229 81.6 32.494 81.113 32.59C81.144 32.881 81.403 32.928 81.598 33.043C81.636 32.977 81.68 32.916 81.731 32.859C81.834 32.822 81.929 32.773 82.013 32.702C82.085 32.578 82.157 32.454 82.229 32.33C82.406 32.238 82.478 32.106 82.389 31.912Z" fill="#BD7D46"/>
<path d="M82.512 31.1986C82.447 31.1736 82.38 31.1576 82.312 31.1496C82.325 31.3416 82.458 31.4216 82.617 31.4766C82.582 31.3836 82.547 31.2916 82.512 31.1986Z" fill="#E5C383"/>
<path d="M80.3753 16.7274C80.4383 16.5974 80.5023 16.4684 80.5653 16.3384C80.4213 16.2644 80.2773 16.1904 80.1333 16.1164C80.0303 16.1524 79.9293 16.1874 79.8273 16.2224C79.7153 16.2374 79.6193 16.2884 79.5323 16.3584C79.2733 16.5234 79.4933 16.6944 79.5273 16.8624C79.8173 16.8644 80.1133 16.9024 80.3753 16.7274Z" fill="#BC8049"/>
<path d="M79.527 16.8623C79.529 16.6943 79.531 16.5263 79.534 16.3583C79.246 16.3843 79.193 16.5283 79.328 16.7673L79.428 16.8133L79.527 16.8623Z" fill="#D2A563"/>
<path d="M79.9845 17.7575C79.9625 17.7785 79.9255 17.7955 79.9215 17.8195C79.9045 17.9115 79.9455 17.9405 80.0205 17.8915C80.0395 17.8795 80.0485 17.8325 80.0435 17.8055C80.0405 17.7865 80.0055 17.7735 79.9845 17.7575Z" fill="#B97F47"/>
<path d="M79.0315 17.4003C79.1015 17.4303 79.1725 17.4593 79.2425 17.4893C79.2275 17.3293 79.1475 17.3223 79.0315 17.4003Z" fill="white"/>
<path d="M79.6233 16.1455C79.6213 16.1105 79.6273 16.0475 79.6173 16.0455C79.5463 16.0285 79.5493 16.0665 79.6303 16.1425L79.6233 16.1455Z" fill="#D2A563"/>
<path d="M79.5327 16.3581C79.6577 16.3711 79.7557 16.3271 79.8267 16.2231C79.7567 16.2031 79.6887 16.1771 79.6237 16.1451L79.6297 16.1431C79.5977 16.2141 79.5657 16.2861 79.5327 16.3581Z" fill="#D2A563"/>
<path d="M85.7424 32.955C85.6184 32.804 85.4944 32.652 85.3714 32.501C85.2444 32.273 85.0554 32.291 84.8504 32.367C84.7184 32.433 84.6034 32.521 84.5114 32.638C84.4664 32.721 84.4474 32.81 84.4554 32.904C84.5034 33.016 84.5504 33.129 84.4454 33.238C84.3014 33.401 84.2914 33.147 84.1944 33.158C84.0984 33.148 84.0144 33.174 83.9374 33.231C83.7914 33.379 83.7194 33.553 83.7444 33.764C83.8334 33.996 84.0394 34.015 84.2424 34.04C84.2924 34.039 84.3434 34.036 84.3934 34.035C84.4414 34.023 84.4904 34.01 84.5384 33.997C84.7294 33.847 85.0384 33.92 85.1744 33.664C85.3634 33.427 85.5534 33.191 85.7424 32.955Z" fill="#E6C77F"/>
<path d="M85.1743 33.6631C84.9243 33.6521 84.6993 33.7081 84.5273 33.9051C84.5583 34.0131 84.6293 34.0591 84.7403 34.0441C85.2143 34.4881 85.2633 34.4781 85.5033 33.8891C85.3933 33.8141 85.2843 33.7381 85.1743 33.6631Z" fill="#F8F3BB"/>
<path d="M85.6783 34.2312C85.6493 34.3312 85.6693 34.4092 85.7753 34.4482C85.8083 34.3472 85.7773 34.2742 85.6783 34.2312Z" fill="#925632"/>
<path d="M85.1597 30.3951C85.0567 30.4321 84.9537 30.4701 84.8497 30.5071L84.8487 30.5021C85.0317 30.9521 84.4387 31.1491 84.5027 31.5611C84.6137 31.8851 84.9587 31.9151 85.1807 32.1011C85.3187 32.1721 85.4617 32.1931 85.6097 32.1321C85.6477 32.0601 85.6857 31.9891 85.7237 31.9171C85.6977 31.6901 85.5307 31.5851 85.3547 31.4891C85.3267 31.3441 85.3527 31.2601 85.5227 31.3401C85.7487 31.3191 85.9487 31.2451 86.0947 31.0601C86.0037 30.7921 85.9037 30.5281 85.7067 30.3141C85.6317 30.2411 85.5477 30.2281 85.4537 30.2741H85.4677C85.3687 30.3241 85.2607 30.3501 85.1597 30.3951Z" fill="#E3C27A"/>
<path d="M85.6097 32.1324C85.4767 32.0734 85.3437 32.0134 85.2097 31.9544C84.8097 31.8304 84.4767 31.8304 84.4397 32.3734C84.5467 32.5494 84.7037 32.6054 84.9007 32.5644C85.0437 32.4384 85.2057 32.4524 85.3717 32.5004C85.4507 32.3774 85.5297 32.2554 85.6097 32.1324Z" fill="#F2E2B0"/>
<path d="M86.9397 31.4864C86.7747 31.1054 86.6007 31.3934 86.4287 31.4794C86.5977 31.5634 86.7677 31.6064 86.9397 31.4864Z" fill="#C88E55"/>
<path d="M81.4533 33.4353C81.3073 33.3473 81.1853 33.1233 80.9923 33.2433C80.6283 33.4683 81.0763 33.7683 80.9553 34.0273C81.2083 34.2363 81.4513 34.0553 81.6973 34.0103C81.7393 33.9783 81.7813 33.9453 81.8233 33.9123C81.8783 33.8173 81.8953 33.7173 81.8673 33.6103C81.7633 33.4713 81.6253 33.4123 81.4533 33.4353Z" fill="#EFD89D"/>
<path d="M81.4534 33.4353C81.5774 33.5213 81.7004 33.6073 81.8244 33.6923C81.9744 33.9503 82.1844 34.0673 82.4834 33.9803C82.9094 33.6253 82.5174 33.3993 82.3494 33.1373C82.2474 33.1763 82.1454 33.2153 82.0434 33.2543C81.9584 33.3003 81.8944 33.2803 81.8514 33.1933C81.7764 33.1493 81.7014 33.1053 81.6264 33.0623C81.5684 33.1863 81.5104 33.3113 81.4534 33.4353Z" fill="#D39C5D"/>
<path d="M81.7056 33.9018C81.4556 33.9438 81.2056 33.9848 80.9556 34.0268C80.6856 34.4438 80.9456 34.4528 81.2586 34.4198C81.3566 34.3778 81.4556 34.3358 81.5536 34.2938C81.7476 34.2188 81.7816 34.0808 81.7056 33.9018Z" fill="#FAF8E9"/>
<path d="M80.2183 34.4375C80.3123 34.3965 80.4213 34.3725 80.4943 34.3085C80.5713 34.2415 80.6223 34.1335 80.5203 34.0375C80.5153 34.0325 80.4153 34.1105 80.3783 34.1635C80.3173 34.2505 80.2713 34.3465 80.2183 34.4395V34.4375Z" fill="#BC7947"/>
<path d="M85.659 30.3715C85.657 30.6945 85.741 30.9635 86.095 31.0615C86.231 30.9645 86.367 30.8685 86.503 30.7715C86.151 30.7265 86.285 30.0645 85.785 30.2065C85.693 30.1945 85.643 30.2145 85.637 30.2675C85.629 30.3265 85.636 30.3615 85.659 30.3715Z" fill="#EEE6C5"/>
<path d="M85.523 31.3403C85.477 31.0883 85.3 31.0713 85.174 31.2223C85.041 31.3803 85.269 31.4133 85.355 31.4893C85.409 31.4373 85.465 31.3883 85.523 31.3403Z" fill="#F3EBCB"/>
<path d="M76.0632 29.1436C75.8772 29.2016 75.7542 29.3296 75.6692 29.4986C75.6822 29.8426 75.9372 29.6586 76.0922 29.6926C76.0822 29.5096 76.0732 29.3266 76.0632 29.1436Z" fill="#DFBC7E"/>
<path d="M85.6589 30.3711C85.6999 30.3151 85.7419 30.2601 85.7849 30.2061C85.7989 30.1311 85.8189 30.0581 85.8459 29.9871C85.6309 29.9681 85.5249 30.0981 85.4539 30.2741L85.5539 30.3291L85.6589 30.3711Z" fill="#D1A15B"/>
<path d="M85.1597 30.3948C85.2857 30.4148 85.3867 30.3688 85.4677 30.2738C85.3377 30.2458 85.2387 30.2928 85.1597 30.3948Z" fill="#C48A45"/>
<path d="M83.6228 34.7517C83.7388 35.2297 84.0938 35.1427 84.4328 35.0957C84.4308 34.9397 84.4298 34.7847 84.4278 34.6297C84.3038 34.4357 84.1218 34.4807 83.9428 34.5117C83.8548 34.5397 83.7748 34.5837 83.7018 34.6397C83.6748 34.6767 83.6488 34.7137 83.6228 34.7517Z" fill="#F8EEC0"/>
<path d="M83.9299 34.6406C84.0959 34.6366 84.2619 34.6336 84.4279 34.6296C84.7729 34.5616 84.5599 34.1986 84.7399 34.0436C84.6689 33.9976 84.5989 33.9516 84.5279 33.9056L84.5359 33.9026C84.4099 33.9506 84.2829 33.9976 84.1629 34.0616C84.0829 34.1096 84.0169 34.1726 83.9619 34.2466C83.8919 34.3736 83.8659 34.5036 83.9299 34.6406Z" fill="#EACD88"/>
<path d="M83.414 34.66L83.521 34.7L83.623 34.751L83.626 34.75C83.851 34.652 83.892 34.43 83.974 34.236C83.909 33.931 83.69 33.984 83.477 34.02C83.38 34.069 83.305 34.142 83.256 34.24C83.238 34.347 83.251 34.451 83.299 34.549C83.337 34.586 83.376 34.623 83.414 34.66Z" fill="#B96F40"/>
<path d="M82.8051 34.8711C82.9661 34.8601 83.1261 34.8491 83.2871 34.8371C83.3351 34.7821 83.3781 34.7231 83.4141 34.6601V34.6591C83.3751 34.5641 83.3101 34.4931 83.2191 34.4461C83.1191 34.4231 83.0231 34.4331 82.9301 34.4761C82.8071 34.5821 82.7561 34.7111 82.8051 34.8711Z" fill="#F5E3B4"/>
<path d="M81.7057 33.9025C81.6547 34.0325 81.6047 34.1635 81.5537 34.2945C81.6917 34.4905 81.6317 34.8975 82.0677 34.7755C82.2667 34.7325 82.3177 34.5875 82.3197 34.4085C82.2367 34.1205 82.0637 33.9285 81.7567 33.8765L81.7057 33.9025Z" fill="#F2DEA4"/>
<path d="M82.2809 34.3831C82.2099 34.5141 82.1389 34.6451 82.0679 34.7751C82.1379 34.8121 82.2079 34.8481 82.2779 34.8841C82.4569 34.9191 82.6349 34.9221 82.8119 34.8731L82.8049 34.8711C82.8719 34.7331 82.9379 34.5941 83.0049 34.4561C82.9769 34.4211 82.9489 34.3861 82.9209 34.3511C82.7509 34.2671 82.5749 34.2621 82.3949 34.3101C82.3569 34.3341 82.3189 34.3581 82.2809 34.3831Z" fill="#E3C77B"/>
<path d="M82.8117 34.8737C82.6317 34.7887 82.4547 34.7937 82.2777 34.8847C82.2487 34.9567 82.2197 35.0287 82.1907 35.0997C82.4347 35.1257 82.6397 35.0447 82.8117 34.8737Z" fill="#F2EBCA"/>
<path d="M81.8818 35.2084C81.9558 35.2434 82.0298 35.2794 82.1038 35.3154C82.1358 35.2414 82.1688 35.1684 82.2008 35.0954C82.0698 35.0644 81.9678 35.1124 81.8818 35.2084Z" fill="#F5EEE1"/>
<path d="M81.4649 15.9777C81.3669 16.0167 81.2679 16.0567 81.1699 16.0957C81.4109 16.4127 81.3749 16.0387 81.4649 15.9777Z" fill="#E3C57F"/>
<path d="M82.349 33.1365C82.076 33.4675 82.58 33.5215 82.571 33.7585C82.619 33.9295 82.747 33.9765 82.907 33.9745C83.121 33.9085 83.173 33.7115 83.256 33.5395C83.346 33.3265 83.521 33.1475 83.522 32.8975C83.463 32.7065 83.201 32.7055 83.153 32.5035C82.716 32.3265 82.585 32.6395 82.447 32.9435C82.474 33.0475 82.569 33.0975 82.63 33.1755C82.542 33.1125 82.448 33.1005 82.347 33.1435L82.349 33.1365Z" fill="#DBAC68"/>
<path d="M84.5747 31.6584C84.7107 31.4114 84.8297 31.1524 84.9867 30.9194C85.1367 30.6964 84.9917 30.6084 84.8487 30.5024C84.7347 30.7244 84.6767 30.9984 84.3607 31.0354C84.3207 31.0944 84.2787 31.1514 84.2347 31.2064C84.1737 31.3584 84.1127 31.5114 84.0527 31.6634C84.0687 31.7044 84.0847 31.7464 84.1017 31.7874C84.1697 31.8474 84.2487 31.8844 84.3387 31.8984C84.4817 31.8824 84.5947 31.8354 84.5747 31.6584Z" fill="#EED79F"/>
<path d="M84.5748 31.6579C84.4718 31.6999 84.3688 31.7409 84.2658 31.7829C84.0658 31.8399 84.0268 31.9919 84.0388 32.1729C84.0118 32.2399 83.9848 32.3069 83.9578 32.3729C84.1398 32.5809 84.3198 32.5269 84.4988 32.3669C84.6118 32.0149 84.9748 32.0959 85.2098 31.9539C85.1768 31.4719 84.8278 31.6679 84.5748 31.6579Z" fill="#C58949"/>
<path d="M84.0524 31.6633C84.0184 31.6503 83.9864 31.6273 83.9514 31.6253C83.7634 31.6133 83.4624 31.4573 83.4784 31.7933C83.4864 31.9643 83.7864 31.8353 83.9534 31.8483C84.0404 31.8373 84.0834 31.8053 84.0834 31.7503C84.0844 31.6953 84.0744 31.6623 84.0524 31.6523V31.6633Z" fill="#F2E7AD"/>
<path d="M82.3472 33.1439C82.4562 33.1529 82.5642 33.1619 82.6732 33.1709C82.6622 33.0309 82.5472 32.9949 82.4472 32.9429C82.4082 33.0069 82.3752 33.0739 82.3472 33.1439Z" fill="#C1854E"/>
<path d="M83.5957 32.7058C83.5177 32.6618 83.4397 32.6168 83.3607 32.5718C83.2907 32.5528 83.2207 32.5308 83.1527 32.5048C83.1407 32.7298 83.2977 32.8148 83.4717 32.8828C83.5387 32.8708 83.5797 32.8408 83.5937 32.7928C83.6087 32.7408 83.6097 32.7128 83.5957 32.7058Z" fill="#B97841"/>
<path d="M82.389 31.9121C82.336 32.0511 82.282 32.1901 82.229 32.3301C82.506 32.2761 82.574 32.1431 82.389 31.9121Z" fill="#D8A866"/>
<path d="M84.0521 31.6528C84.0251 31.7218 83.9921 31.7868 83.9531 31.8488C83.9821 31.9568 84.0111 32.0648 84.0391 32.1738C84.1141 32.0428 84.1901 31.9128 84.2651 31.7838C84.1941 31.7398 84.1231 31.6968 84.0521 31.6528Z" fill="#D5A65F"/>
<path d="M81.8513 33.193C81.8613 33.384 81.9493 33.329 82.0433 33.254C81.9823 33.225 81.9183 33.204 81.8513 33.193Z" fill="#A75F33"/>
<path d="M83.4575 32.3963C83.5815 32.4193 83.6845 32.3873 83.7585 32.2813C83.6345 32.2593 83.5345 32.2983 83.4575 32.3963Z" fill="#F6E9B7"/>
<path d="M82.9876 33.4063C82.9866 33.5873 82.9856 33.7693 82.9846 33.9503C83.0096 33.9893 83.0336 34.0283 83.0586 34.0673C83.1446 34.1123 83.2306 34.1103 83.3166 34.0693C83.4856 34.0023 83.6696 33.9633 83.7956 33.8163C83.8926 33.6093 83.9896 33.4023 84.0866 33.1943C84.0476 33.1003 83.9816 33.0303 83.8896 32.9863C83.5286 32.9973 83.3236 33.3403 82.9876 33.4063Z" fill="#C4884A"/>
<path d="M83.8893 33.0942C83.9553 33.1262 84.0213 33.1602 84.0863 33.1942C84.1603 33.2282 84.2333 33.2622 84.3073 33.2972C84.3443 33.3942 84.4153 33.4242 84.5133 33.3962C84.5993 33.2412 84.9303 33.3772 84.8863 33.1222C84.8703 33.0272 84.6513 32.9672 84.5243 32.8912C84.4953 32.7862 84.4263 32.7512 84.3233 32.7752L84.2753 32.7872C84.1103 32.8432 83.8753 32.8122 83.8893 33.0942Z" fill="#D5A65F"/>
<path d="M83.7957 33.816C83.5587 33.803 83.3557 33.883 83.1787 34.037C83.2187 34.151 83.2987 34.198 83.4177 34.177C83.5697 34.167 83.7217 34.156 83.8737 34.146C83.9187 34.26 83.9957 34.29 84.1057 34.235L84.1807 34.195C84.3137 34.1 84.3867 33.983 84.3237 33.815C84.1477 33.815 83.9717 33.816 83.7957 33.816Z" fill="#EACD88"/>
<path d="M84.3242 33.8143C84.2762 33.9413 84.2282 34.0683 84.1802 34.1953C84.3702 34.1823 84.4622 34.0533 84.5362 33.9023C84.4652 33.8723 84.3952 33.8433 84.3242 33.8143Z" fill="#FDF5D2"/>
<path d="M84.3235 32.7756C84.3905 32.8136 84.4575 32.8526 84.5245 32.8916C84.5525 32.8196 84.5815 32.7476 84.6095 32.6756C84.5145 32.7086 84.4185 32.7426 84.3235 32.7756Z" fill="#B97940"/>
<path d="M84.5135 33.3958C84.4465 33.3588 84.3775 33.3258 84.3075 33.2968C84.3015 33.4848 84.3775 33.5018 84.5135 33.3958Z" fill="#F3E2AE"/>
<path d="M82.9848 33.9498C82.8468 33.8858 82.7088 33.8218 82.5708 33.7578C82.3048 33.9288 82.0688 33.7688 81.8248 33.6918C81.8018 33.7538 81.7798 33.8148 81.7568 33.8758C81.9078 34.0688 82.0418 34.2798 82.2808 34.3828H82.2788C82.5028 34.3198 82.7448 34.3208 82.9568 34.2058C83.0198 34.1268 83.0288 34.0418 82.9848 33.9498Z" fill="#E9CA83"/>
<path d="M84.1057 34.235C84.0287 34.205 83.9517 34.175 83.8737 34.145C83.7907 34.347 83.7087 34.548 83.6257 34.749C83.7277 34.713 83.8287 34.677 83.9297 34.64C83.9887 34.505 84.0467 34.37 84.1057 34.235Z" fill="#D6A86C"/>
<path d="M82.985 33.9511C82.952 34.0211 82.919 34.0911 82.886 34.1601C82.847 34.2951 82.959 34.3671 83.01 34.4651L83.005 34.4571C83.077 34.4841 83.15 34.5101 83.223 34.5371C83.293 34.5161 83.333 34.4791 83.342 34.4261C83.35 34.3711 83.347 34.3401 83.331 34.3331C83.356 34.2791 83.385 34.2271 83.418 34.1771C83.338 34.1311 83.259 34.0841 83.179 34.0381C83.116 34.0051 83.051 33.9761 82.985 33.9511Z" fill="#DBAC68"/>
<path d="M83.3312 34.3332C83.2952 34.4012 83.2592 34.4692 83.2222 34.5372C83.2772 34.5912 83.3412 34.6322 83.4142 34.6592C83.3862 34.5502 83.3592 34.4422 83.3312 34.3332Z" fill="#D6A86C"/>
<path d="M83.0103 34.4648C82.9693 34.3638 82.9273 34.2618 82.8863 34.1598C82.6533 34.1518 82.4443 34.2088 82.2783 34.3838C82.5113 34.5118 82.7663 34.4428 83.0103 34.4648Z" fill="#F2DEA4"/>
<path d="M80.644 123.038C80.435 122.26 79.883 121.714 79.192 121.469C77.845 120.99 77.044 121.586 76.646 123.2C77.235 123.62 77.982 123.496 78.612 123.781C79.329 123.643 80.244 124.041 80.644 123.038Z" fill="#E4C684"/>
<path d="M76.6492 123.762C78.0542 125.461 79.0352 125.546 80.6152 124.106C79.8442 123.139 78.6002 124.28 77.7932 123.469C77.3662 123.384 76.9872 123.496 76.6492 123.762Z" fill="#D0A061"/>
<path d="M77.8447 123.735C78.6757 124.556 79.7107 123.841 80.6157 124.105C80.8897 123.757 80.9207 123.402 80.6437 123.038C79.9057 123.191 79.1677 123.344 78.4297 123.497C78.0677 123.166 77.8867 123.281 77.8447 123.735Z" fill="#F1E5B9"/>
<path d="M48.8954 138.881C49.1534 138.968 49.3604 138.925 49.4384 138.666C49.5324 138.355 49.4044 138.077 49.1754 137.88C48.9974 137.726 48.7414 137.736 48.6194 137.954C48.4024 138.343 48.5914 138.646 48.8954 138.881Z" fill="#F2E9C5"/>
<path d="M77.8447 123.735C78.0397 123.656 78.2347 123.576 78.4297 123.497C78.0247 122.256 77.2197 123.422 76.6457 123.2C76.4347 123.389 76.4767 123.576 76.6497 123.762C77.0477 123.753 77.4457 123.744 77.8447 123.735Z" fill="#CA985A"/>
<path d="M59.6856 115.304C59.5936 115.534 59.6596 115.716 59.8956 115.777C60.0046 115.805 60.1856 115.771 60.2546 115.694C60.4026 115.527 60.3886 115.306 60.2056 115.167C59.9996 115.01 59.8236 115.123 59.6856 115.304Z" fill="#DCB884"/>
<path d="M84.6835 165.446C84.9055 164.83 85.4405 164.891 85.9365 164.865C86.1145 164.86 86.2875 164.824 86.4545 164.761C86.9225 163.985 86.2615 163.842 85.7985 163.586C85.2675 163.467 84.7545 163.604 84.2385 163.701C84.1665 163.287 83.4825 164.728 83.6605 163.501C83.7165 163.119 83.4855 162.812 83.1785 162.582C82.9195 162.469 82.6405 162.423 82.3685 162.359C81.9025 162.211 81.5875 161.914 81.4495 161.439C80.9675 161.223 80.6105 161.537 80.2255 161.729C80.0685 161.907 79.8595 162.001 79.6485 162.092C79.5825 162.239 79.5165 162.385 79.4505 162.531C79.5135 162.761 79.4665 163.012 79.5835 163.23C79.6995 163.332 79.8345 163.398 79.9865 163.421C80.1265 163.413 80.2655 163.381 80.4005 163.334C80.5535 163.315 80.6915 163.347 80.8125 163.451C80.8915 163.606 80.9395 163.757 80.9445 163.924C80.8015 164.299 80.4745 164.479 80.1925 164.698C79.8945 164.892 79.5715 165.042 79.2505 165.195C79.1835 165.249 79.1175 165.306 79.0505 165.362C79.5835 166.05 79.5495 167.049 80.4075 167.582C81.9535 168.542 82.7955 168.354 84.5775 166.497C83.8215 166.067 84.8375 165.815 84.6835 165.446Z" fill="#D9B170"/>
<path d="M82.9375 162.696C83.5575 163.016 82.9915 164.385 84.2305 164.158C84.6675 163.919 85.0725 163.627 85.5165 163.399C85.9855 163.131 86.2995 162.754 86.3725 162.204C86.4055 161.431 85.7435 160.967 85.5275 160.303C85.1365 159.667 84.6315 159.575 84.1135 160.102C83.6605 160.562 83.2835 161.097 82.8725 161.599C82.8455 161.672 82.8185 161.746 82.7905 161.819C82.7225 162.052 82.7175 162.286 82.7765 162.521C82.8295 162.58 82.8835 162.638 82.9375 162.696Z" fill="#EBD999"/>
<path d="M68.5182 155.396C69.0882 154.616 69.3912 153.811 68.7502 152.918C68.2132 152.751 67.6352 152.704 67.1572 152.361C66.5602 152.087 65.9502 152.052 65.3232 152.246C64.9172 152.446 64.6062 152.74 64.4202 153.157C64.4422 154.325 65.0282 154.919 66.2022 154.909C66.4412 154.825 66.6422 154.287 66.9492 154.843C67.1142 154.937 67.2872 154.975 67.4692 154.963C68.1082 154.395 68.1082 155.397 68.5182 155.396Z" fill="#E6CD93"/>
<path d="M67.309 154.8C67.161 154.717 67.013 154.634 66.865 154.551C66.753 154.391 66.625 154.376 66.48 154.507C65.225 154.84 65.025 153.815 64.616 153.059C64.549 152.979 64.483 152.898 64.417 152.817C63.907 152.628 63.406 152.51 62.985 153.004C62.891 153.482 63.176 153.782 63.483 154.072C64.02 154.523 64.509 155.037 65.134 155.378C65.308 155.5 65.628 155.638 65.505 155.843C64.789 157.038 65.478 157.111 66.395 156.993C66.835 156.937 67.285 156.854 67.569 156.443C67.132 155.951 66.941 155.42 67.309 154.8Z" fill="#DCB97E"/>
<path d="M64.6156 153.059C65.0316 153.024 65.2516 152.744 65.4276 152.409C65.6016 152.421 65.7126 152.343 65.7606 152.181C65.8366 151.915 66.0996 151.979 66.2856 151.897C66.4286 151.811 66.5446 151.703 66.6386 151.567C66.7156 151.416 66.7566 151.257 66.7706 151.089C66.7626 150.941 66.6396 150.745 66.7366 150.658C66.9616 150.458 66.6356 150.567 66.8446 150.793C67.0106 150.854 67.1736 150.85 67.3346 150.78C67.4696 150.648 67.4936 150.498 67.4086 150.331C67.2056 150.051 67.0026 149.771 66.7996 149.491C66.5336 149.432 66.3466 149.643 66.1126 149.695C64.6676 149.458 64.1716 150.711 63.3516 151.455C63.7076 152.033 64.3556 152.38 64.6056 153.042L64.6156 153.059Z" fill="#DCB97E"/>
<path d="M64.6055 153.041C64.7935 151.572 64.7935 151.572 63.3515 151.454C62.1845 152.058 61.1945 152.767 61.6095 154.33C61.6935 154.649 61.9415 154.8 62.2055 154.94C62.5895 154.779 62.9765 155.225 63.3605 154.936C63.4785 154.763 63.5165 154.573 63.4765 154.367C63.3645 153.879 62.4095 153.57 63.1665 152.897C63.6275 153.127 64.1215 153.037 64.6055 153.041Z" fill="#CFA578"/>
<path d="M86.1484 162.115C85.9784 162.618 85.5304 162.863 85.1604 163.18C85.2324 163.394 85.1734 163.671 85.4484 163.79C85.8874 164.006 86.3984 164.148 86.4544 164.761C88.2804 164.077 88.3954 163.369 86.9334 161.813C86.6004 161.728 86.3444 161.844 86.1484 162.115Z" fill="#DBB275"/>
<path d="M57.6909 144.61C57.4419 145.223 58.0669 146.509 58.5349 146.608C59.1239 146.733 59.5779 146.479 59.7989 145.948C60.0959 145.238 59.8329 144.563 59.1979 144.274C58.6669 144.033 58.0689 144.35 57.6909 144.61Z" fill="#DAB282"/>
<path d="M80.0977 165.356C80.6207 164.767 82.0517 164.842 81.4857 163.457C80.9557 163.587 80.4397 163.624 79.9857 163.235C79.8707 163.189 79.7557 163.143 79.6407 163.096C79.1087 163.247 79.2007 163.954 78.7097 164.141C78.6547 164.595 78.7937 164.995 79.0507 165.362L79.2287 165.37C79.5157 165.224 79.8077 165.341 80.0977 165.356Z" fill="#E0C283"/>
<path d="M63.4169 154.505C63.3509 154.648 63.2849 154.79 63.2179 154.933C62.9789 155.013 62.6989 154.948 62.4919 155.14C62.8979 156.432 63.7369 155.761 64.4679 155.576C64.6659 155.457 64.8569 155.313 65.1099 155.353L65.1339 155.377C64.9469 154.616 64.4739 154.077 63.8099 153.688C63.4359 153.843 63.3049 154.116 63.4169 154.505Z" fill="#D09F65"/>
<path d="M67.3089 154.799C66.9439 155.418 66.1849 156.1 67.5689 156.442C67.9739 156.174 68.3879 155.914 68.5179 155.396C68.2539 155.007 68.5399 154.566 68.4429 154.007C67.9979 154.318 67.6529 154.558 67.3089 154.799Z" fill="#C6935D"/>
<path d="M86.1485 162.115C86.4095 162.014 86.6715 161.914 86.9335 161.813C87.2835 160.547 86.1975 160.618 85.5275 160.303C85.0675 161.136 85.8985 161.526 86.1485 162.115Z" fill="#CE975C"/>
<path d="M67.2633 152.765C67.6513 153.855 68.2133 153.266 68.7503 152.918C68.8183 152.584 68.9773 152.237 68.6273 151.956C68.2083 151.907 67.8033 151.924 67.4583 152.214C67.3053 152.366 67.2363 152.549 67.2633 152.765Z" fill="#DAB678"/>
<path d="M67.4872 152.351C67.9182 152.366 68.3032 152.248 68.6272 151.956C68.3562 151.312 68.2062 150.579 67.4082 150.33C67.3382 150.458 67.2592 150.581 67.1712 150.697C66.6962 151.209 67.0592 151.659 67.2732 152.121C67.3442 152.198 67.4152 152.274 67.4872 152.351Z" fill="#C8955C"/>
<path d="M84.6834 165.446C84.1844 165.875 83.4094 165.82 82.9304 166.463C83.4944 167.005 84.0584 166.368 84.5784 166.496C84.8234 166.168 84.8794 165.82 84.6834 165.446Z" fill="#F2EAC3"/>
<path d="M81.6558 223.428C82.0138 223.493 82.2808 223.398 82.3348 223.039C82.3998 222.609 82.1768 222.265 81.8368 222.047C81.5708 221.878 81.2328 221.94 81.1128 222.252C80.8998 222.809 81.2088 223.174 81.6558 223.428Z" fill="#F2E9C5"/>
<path d="M81.4493 161.438C81.1793 162.266 81.3053 162.835 82.3463 162.802C82.4573 162.754 82.5293 162.681 82.5623 162.584C82.5953 162.485 82.6013 162.43 82.5813 162.42C82.5793 162.156 82.4883 161.937 82.2633 161.786C81.9923 161.67 81.7203 161.554 81.4493 161.438Z" fill="#BB7746"/>
<path d="M78.7095 164.141C79.3365 164.075 79.3945 163.501 79.6415 163.096C79.5775 162.908 79.5135 162.719 79.4505 162.531C79.1195 163.029 78.7725 163.52 78.7095 164.141Z" fill="#CB9755"/>
<path d="M61.7218 149.196C61.8208 149.277 61.9208 149.359 62.0208 149.44C62.0538 149.315 62.1048 149.191 62.1118 149.064C62.1148 149.021 62.0148 148.942 61.9518 148.929C61.7478 148.888 61.6688 148.988 61.7218 149.196Z" fill="#F5EFE2"/>
<path d="M66.1121 149.694C66.3411 149.626 66.5711 149.558 66.8001 149.491C66.7491 149.367 66.7041 149.139 66.6451 149.135C66.2731 149.111 66.2271 149.443 66.1121 149.694Z" fill="#C3925E"/>
<path d="M82.2637 161.786C82.2837 161.978 82.3037 162.17 82.3237 162.361C82.4807 162.5 82.6247 162.488 82.7547 162.323C82.8977 162.083 82.9627 161.831 82.8667 161.556L82.8727 161.598C82.6697 161.661 82.4667 161.724 82.2637 161.786Z" fill="#D9B170"/>
<path d="M62.4921 155.141C62.7341 155.072 62.9761 155.003 63.2181 154.933C62.8791 154.776 62.5411 154.694 62.2051 154.94L62.3301 155.066L62.4921 155.141Z" fill="#DDBB83"/>
<path d="M79.6482 162.092C79.8402 161.971 80.0332 161.851 80.2252 161.729C79.9582 161.731 79.7562 161.837 79.6482 162.092Z" fill="#E0C283"/>
<path d="M65.1105 155.353C64.8485 155.288 64.6355 155.367 64.4685 155.576C64.6825 155.502 64.8965 155.427 65.1105 155.353Z" fill="#DCB97E"/>
<path d="M79.9856 163.235C79.9166 163.617 79.8666 163.977 80.4066 164.063C80.9376 164.147 81.2566 163.891 81.4856 163.457C81.3026 163.223 81.1196 162.99 80.9366 162.756C80.6846 162.719 80.4636 162.805 80.2496 162.924C80.1836 163.046 80.0956 163.149 79.9856 163.235Z" fill="#FAF9E8"/>
<path d="M81.4902 167.12C81.5612 167.219 81.6172 167.384 81.7062 167.404C81.9312 167.455 82.0842 167.314 82.0462 167.085C82.0322 166.997 81.8582 166.866 81.7702 166.876C81.6692 166.887 81.5832 167.033 81.4902 167.12Z" fill="#EBD294"/>
<path d="M85.449 163.79C85.353 163.586 85.257 163.383 85.16 163.18C84.85 163.506 84.54 163.832 84.23 164.158C84.7 164.244 85.081 164.041 85.449 163.79Z" fill="#F0E0AD"/>
<path d="M80.0978 165.356C79.8038 165.084 79.5018 164.367 79.2278 165.37C79.5208 165.539 79.8118 165.575 80.0978 165.356Z" fill="#C89150"/>
<path d="M82.3235 162.362C82.3525 162.508 82.3605 162.655 82.3455 162.803C82.5425 162.767 82.7405 162.731 82.9375 162.695L82.8725 162.491C82.7955 162.466 82.7185 162.441 82.6415 162.416C82.5355 162.395 82.4295 162.377 82.3235 162.362Z" fill="#EBD999"/>
<path d="M80.2495 162.924C80.4785 162.868 80.7065 162.812 80.9365 162.756C80.6705 162.66 80.4415 162.714 80.2495 162.924Z" fill="#E0C283"/>
<path d="M82.6409 162.415C82.7199 162.435 82.7979 162.461 82.8729 162.492C83.0839 162.178 83.0989 161.866 82.8659 161.556C82.7909 161.842 82.7159 162.129 82.6409 162.415Z" fill="white"/>
<path d="M67.2632 152.765C67.3382 152.627 67.4122 152.489 67.4872 152.351L67.4832 152.344C67.2372 151.903 67.0832 151.353 66.4022 151.425C66.3452 151.545 66.2832 151.662 66.2152 151.776C66.0122 151.843 65.7552 151.765 65.6142 152C65.5472 152.134 65.4852 152.27 65.4272 152.409C66.0392 152.527 66.6512 152.646 67.2632 152.765Z" fill="#ECD9A4"/>
<path d="M66.4801 154.506C66.6101 154.506 66.7391 154.521 66.8651 154.551C67.0071 154.299 67.1401 154.031 66.8861 153.79C66.8111 153.719 66.5811 153.704 66.5041 153.766C66.2311 153.984 66.3061 154.252 66.4801 154.506Z" fill="#F6F2D8"/>
<path d="M63.417 154.505C63.548 154.233 63.679 153.96 63.81 153.688C63.477 153.521 63.197 153.31 63.166 152.897C62.147 153.604 62.175 153.783 63.417 154.505Z" fill="#DDBB83"/>
<path d="M66.4019 151.425C66.7619 151.732 67.1229 152.038 67.4829 152.345C67.8469 151.708 67.2009 151.262 67.1719 150.699C67.0469 150.644 66.9229 150.588 66.8009 150.53C66.6839 150.562 66.6149 150.623 66.5969 150.712C66.5769 150.804 66.5799 150.855 66.6049 150.867C66.5369 151.053 66.4699 151.239 66.4019 151.425Z" fill="#DAB678"/>
<path d="M65.6143 152C65.8143 151.925 66.0153 151.851 66.2153 151.776C66.0003 151.811 65.5503 151.216 65.6143 152Z" fill="#E6CD93"/>
<path d="M0.4509 162.65C0.5319 162.496 0.6189 162.345 0.7129 162.198C0.5499 162.217 0.3859 162.236 0.2229 162.254C0.2989 162.386 0.3749 162.518 0.4509 162.65Z" fill="#F6F0DD"/>
<path d="M56.104 124.132C56.356 124.386 56.755 124.009 56.989 124.339C57.298 123.951 57.02 123.5 57.124 123.09C57.092 123.017 57.038 122.973 56.96 122.956C56.81 122.939 56.664 122.942 56.533 123.033C56.394 123.174 56.4 123.336 56.464 123.501C56.431 123.606 56.589 123.549 56.477 123.567C56.347 123.587 56.458 123.443 56.385 123.415C56.3 123.332 56.198 123.306 56.084 123.314C56.007 123.346 55.944 123.394 55.891 123.456C55.818 123.563 55.783 123.68 55.785 123.808C55.829 123.977 55.887 124.134 56.104 124.132Z" fill="#DEB874"/>
<path d="M91.6603 188.933C91.6343 188.981 91.6113 189.031 91.5913 189.082C91.7593 189.1 91.7803 189.05 91.6603 188.933Z" fill="#AA6F3A"/>
<path d="M86.9212 96.1302C86.6272 96.1332 86.3332 96.1372 86.0392 96.1402C85.9322 96.0862 85.8242 96.0362 85.7142 95.9902C85.5532 96.0602 85.3972 96.1422 85.2232 96.1782C85.1732 96.2742 85.1202 96.3692 85.0662 96.4632C85.0822 96.6352 85.1712 96.7562 85.3222 96.8352C85.6062 97.0312 85.9262 97.0502 86.2542 97.0332C86.4152 97.0172 86.5672 96.9682 86.7102 96.8932C86.8202 96.7762 86.9522 96.6902 87.1032 96.6322C87.2612 96.5722 87.4192 96.5122 87.5772 96.4512C87.3582 96.3442 87.1402 96.2372 86.9212 96.1302Z" fill="#D5A65F"/>
<path d="M79.9815 66.9114C80.1195 67.1574 80.2565 67.4034 80.3945 67.6494C81.9775 66.9064 80.2945 66.0294 80.4945 65.2294C80.2095 64.9794 79.9675 65.0664 79.7495 65.3264C79.8265 65.8544 79.9045 66.3834 79.9815 66.9114Z" fill="#CA985A"/>
<path d="M73.5554 145.649C73.5954 145.844 73.6044 146.042 73.5854 146.24C73.8494 146.191 74.1134 146.143 74.3774 146.096L74.2914 145.822C74.1874 145.789 74.0844 145.755 73.9804 145.721C73.8394 145.693 73.6974 145.669 73.5554 145.649Z" fill="#EBD999"/>
<path d="M12.3996 5.83436C12.8356 5.01236 13.0146 4.20236 12.2806 3.43836C11.7456 3.35436 11.1876 3.38736 10.6846 3.12636C10.0776 2.94736 9.49057 2.99736 8.92057 3.26936C8.56057 3.51536 8.30357 3.83836 8.18457 4.26236C8.36557 5.37236 9.00557 5.85936 10.1246 5.68736C10.3406 5.57536 10.4586 5.03436 10.8276 5.52236C10.9976 5.58936 11.1686 5.60236 11.3396 5.56536C11.8706 4.93536 12.0086 5.89236 12.3996 5.83436Z" fill="#E6CD93"/>
<path d="M8.35666 4.14062C8.74866 4.05062 8.91966 3.75263 9.04166 3.40863C9.20966 3.39663 9.30366 3.30762 9.32766 3.14562C9.36366 2.88162 9.62266 2.90662 9.78966 2.80262C9.91366 2.70162 10.0097 2.58163 10.0807 2.43963C10.1337 2.28463 10.1517 2.12763 10.1417 1.96563C10.1137 1.82563 9.96866 1.65562 10.0497 1.55962C10.2367 1.33762 9.94066 1.48663 10.1717 1.67263C10.3377 1.70863 10.4927 1.68263 10.6367 1.59363C10.7467 1.44863 10.7497 1.30263 10.6457 1.15563C10.4137 0.916625 10.1817 0.677625 9.94966 0.437625C9.68766 0.417625 9.53766 0.644625 9.32166 0.726625C7.91166 0.699625 7.61066 1.96163 6.93066 2.78463C7.34966 3.28663 8.01566 3.52862 8.34466 4.12563L8.35666 4.14062Z" fill="#DCB97E"/>
<path d="M10.8415 3.49712C11.3615 4.48312 11.8165 3.84412 12.2805 3.43912C12.2995 3.11012 12.4035 2.75812 12.0315 2.53812C11.6245 2.54912 11.2405 2.62112 10.9515 2.94512C10.8265 3.11112 10.7855 3.29512 10.8415 3.49712Z" fill="#DAB678"/>
<path d="M10.9983 3.07129C11.4113 3.02629 11.7623 2.86029 12.0313 2.53729C11.6843 1.96129 11.4403 1.28229 10.6453 1.15529C10.5963 1.28629 10.5373 1.41429 10.4703 1.53729C10.0863 2.09029 10.4953 2.47029 10.7623 2.88129C10.8403 2.94529 10.9193 3.00829 10.9983 3.07129Z" fill="#C8955C"/>
<path d="M5.06639 0.854898C5.17239 0.918898 5.27839 0.982898 5.38439 1.0459C5.39939 0.922898 5.43139 0.796898 5.42039 0.675898C5.41739 0.633898 5.31139 0.571898 5.24939 0.568898C5.04839 0.557898 4.98739 0.663898 5.06639 0.854898Z" fill="#F5EFE2"/>
<path d="M9.32178 0.726562C9.53078 0.630562 9.74078 0.534563 9.94978 0.438563C9.88378 0.326563 9.81078 0.115562 9.75378 0.120562C9.39478 0.148562 9.39678 0.471563 9.32178 0.726562Z" fill="#C3925E"/>
<path d="M10.8415 3.49707C10.8935 3.35507 10.9455 3.21407 10.9985 3.07207L10.9935 3.06607C10.6985 2.67807 10.4765 2.17507 9.8355 2.33707C9.7985 2.45907 9.7555 2.58007 9.7065 2.69807C9.5215 2.79007 9.2655 2.75007 9.1645 2.99407C9.1185 3.13107 9.0775 3.26907 9.0415 3.40907C9.6415 3.43807 10.2415 3.46807 10.8415 3.49707Z" fill="#ECD9A4"/>
<path d="M9.83569 2.33741C10.2217 2.58041 10.6077 2.82341 10.9937 3.06641C11.2527 2.40841 10.5757 2.07141 10.4707 1.53841C10.3437 1.50441 10.2177 1.46741 10.0937 1.42941C9.98569 1.47541 9.92969 1.54341 9.92369 1.63041C9.91769 1.72041 9.92769 1.76941 9.95269 1.77741C9.91369 1.96441 9.87469 2.15041 9.83569 2.33741Z" fill="#DAB678"/>
<path d="M9.16409 2.99414C9.34509 2.89514 9.52609 2.79614 9.70709 2.69814C9.50609 2.76014 8.99509 2.25514 9.16409 2.99414Z" fill="#E6CD93"/>
<path d="M9.953 1.77734C9.995 1.65934 10.042 1.54334 10.093 1.42934C9.979 1.45934 9.864 1.48934 9.75 1.51934C9.818 1.60534 9.885 1.69134 9.953 1.77734Z" fill="#F6F0DD"/>
<path d="M48.2579 78.7146C48.0549 78.8826 47.9649 79.0626 48.2369 79.2416C48.5049 79.4186 48.8249 79.3796 49.0929 79.7266C49.4699 80.2156 50.1299 79.5966 50.6879 79.7736C50.9129 79.8446 50.9929 79.5006 51.0819 79.2996C51.0059 79.1616 50.8749 79.0886 50.7479 79.0156C50.6759 78.9726 50.5929 78.9446 50.5089 78.9316C50.4319 78.9346 50.3519 78.9436 50.2749 78.9546C50.1609 78.9566 50.0519 78.9256 49.9429 78.8876C49.8359 78.8596 49.7349 78.8676 49.6569 78.9326C49.6669 78.9226 49.6259 78.9356 49.6259 78.9356C49.6259 78.9356 49.6659 78.8576 49.6709 78.8496C49.7769 78.6316 49.7199 78.4376 49.6169 78.2466C49.5539 78.1746 49.4789 78.1166 49.3939 78.0696C49.0839 77.9646 48.8409 77.6496 48.4589 77.7646C48.2609 78.0546 48.3459 78.3236 48.5169 78.5856C48.5859 78.6746 48.6549 78.7676 48.7919 78.7326C48.6749 78.8376 48.6069 78.6976 48.5139 78.6766C48.4219 78.6476 48.3369 78.6606 48.2579 78.7146Z" fill="#E1C180"/>
<path d="M48.519 77.7977C48.83 77.8517 48.903 78.4937 49.377 78.1447C49.531 78.0927 49.604 77.9737 49.645 77.8267C49.682 77.5357 49.666 77.2437 49.672 76.9517C49.671 76.8507 49.655 76.7527 49.629 76.6547C49.544 76.4687 49.461 76.2807 49.205 76.2997C49.107 76.3497 49.01 76.3997 48.913 76.4497L48.889 76.5297C48.852 76.5767 48.804 76.6007 48.745 76.6027C48.686 76.6357 48.639 76.6237 48.605 76.5637C48.239 76.8027 47.863 77.0377 48.078 77.5787C48.171 77.7597 48.313 77.8437 48.519 77.7977Z" fill="#D1A464"/>
<path d="M49.2048 76.3003C49.3148 76.4473 49.4238 76.5933 49.5338 76.7403C49.6048 76.7943 49.6718 76.8513 49.7298 76.9123C49.7558 76.9363 49.7868 76.9613 49.8128 76.9863C49.8588 77.0313 49.9178 77.0643 49.9808 77.0823C49.9768 77.0833 50.0378 77.1513 50.0378 77.1513C50.0378 77.1513 49.9748 77.2163 49.9738 77.2193C49.9588 77.2913 49.9608 77.3603 49.9758 77.4313C49.9938 77.5533 50.0108 77.6733 50.0238 77.7953C50.0398 78.0823 49.9838 78.3923 50.2858 78.5823C50.5448 78.7203 50.7968 78.7073 51.0438 78.5523C50.9688 77.8183 51.9048 76.8123 50.4778 76.4393C50.2288 76.5823 50.0768 76.4203 49.9248 76.2603C49.6688 75.9913 49.4298 76.0093 49.2048 76.3003Z" fill="#E3C57F"/>
<path d="M50.478 76.4388C50.748 76.7668 51.291 76.9998 50.829 77.5688C50.565 77.8938 51.344 78.1468 50.922 78.5088C50.742 78.6428 50.583 78.7868 50.652 79.0458C50.655 79.3688 50.908 79.2678 51.082 79.2988C51.598 79.2238 51.716 78.9368 51.518 78.4818C51.579 77.9008 51.729 77.3228 51.588 76.7338C51.238 76.5618 50.977 76.0508 50.478 76.4388Z" fill="#D2A563"/>
<path d="M51.5881 76.7334C51.3241 77.3064 51.3391 77.8904 51.5171 78.4814C52.1671 77.6044 52.1671 77.6044 51.5881 76.7334Z" fill="#E8CF94"/>
<path d="M48.519 77.7978C48.372 77.7248 48.225 77.6518 48.078 77.5788C48.064 77.7538 48.139 77.9498 48.005 78.0998C47.661 78.4868 48.035 78.5668 48.258 78.7138C48.354 78.7438 48.45 78.7728 48.546 78.8018C48.665 78.7668 48.691 78.6978 48.625 78.5928C48.59 78.3278 48.554 78.0628 48.519 77.7978Z" fill="#D6B36C"/>
<path d="M45.458 75.2636C45.351 75.2186 45.239 75.2126 45.185 75.3286C45.131 75.4456 45.205 75.5276 45.323 75.5306C45.422 75.5336 45.576 75.5286 45.61 75.4716C45.669 75.3706 45.543 75.3116 45.458 75.2636Z" fill="#E8D3A6"/>
<path d="M48.6047 76.5639C48.6057 76.6599 48.6447 76.7089 48.7177 76.6949C48.7517 76.6879 48.7817 76.6589 48.8137 76.6399C48.9117 76.6009 48.9467 76.5319 48.9067 76.4309L48.9127 76.4499C48.8107 76.4879 48.7077 76.5259 48.6047 76.5639Z" fill="#AB723C"/>
<path d="M50.232 78.3752C50.203 78.1032 50.497 77.8062 50.169 77.5572C50.013 77.5782 49.902 77.6702 49.808 77.7872C49.709 77.9532 49.626 78.1282 49.53 78.2962C49.503 78.5362 49.476 78.7762 49.448 79.0162C49.489 79.0992 49.555 79.1322 49.645 79.1132C49.745 79.0762 49.845 79.0382 49.945 79.0012C49.976 79.0932 50.042 79.1442 50.137 79.1602C50.177 79.1412 50.218 79.1232 50.258 79.1052C50.31 79.0332 50.327 78.9522 50.311 78.8652C50.22 78.7852 50.064 78.7132 50.271 78.5872C50.304 78.5082 50.29 78.4372 50.232 78.3752Z" fill="#C99757"/>
<path d="M50.2319 78.3749C50.2099 78.4479 50.1889 78.5209 50.1689 78.5949C50.1769 78.7049 50.2129 78.8049 50.2809 78.8919L50.2669 78.9009C50.2779 78.9959 50.3119 79.0419 50.3689 79.0409C50.4269 79.0389 50.4619 79.0269 50.4739 79.0019C50.5319 79.0219 50.5919 79.0359 50.6519 79.0469C50.7419 78.8669 50.8329 78.6879 50.9219 78.5079C50.6919 78.4639 50.4619 78.4199 50.2319 78.3749Z" fill="#F0E3AE"/>
<path d="M49.53 78.2959C49.756 78.3099 49.865 78.1709 49.938 77.9849C49.878 77.7859 49.738 77.7429 49.553 77.7879C49.495 77.9069 49.436 78.0259 49.377 78.1449C49.434 78.1899 49.485 78.2399 49.53 78.2959Z" fill="#8D5435"/>
<path d="M50.1666 79.1066C50.0926 79.0716 50.0186 79.0356 49.9446 79.0006C49.9946 79.2596 50.1046 79.3966 50.3726 79.2086C50.3556 79.1266 50.3196 79.0846 50.2646 79.0816C50.2086 79.0786 50.1766 79.0866 50.1666 79.1066Z" fill="#B07742"/>
<path d="M48.6249 78.5929C48.5939 78.6609 48.5679 78.7309 48.5459 78.8019C48.6459 78.8499 48.7419 78.9279 48.8539 78.8299C48.7779 78.7509 48.7009 78.6719 48.6249 78.5929Z" fill="#C39451"/>
<path d="M50.1665 79.107C50.2355 79.141 50.3035 79.175 50.3725 79.209C50.4065 79.14 50.4405 79.071 50.4735 79.002C50.4045 78.969 50.3365 78.935 50.2675 78.901C50.2335 78.97 50.2005 79.038 50.1665 79.107Z" fill="#D2A563"/>
<path d="M49.5533 77.7874C49.6813 77.8534 49.8103 77.9194 49.9383 77.9854C50.0153 77.8424 50.0923 77.6994 50.1683 77.5574C50.1353 77.4544 50.1023 77.3514 50.0683 77.2494C50.0563 77.1364 50.0073 77.0404 49.9393 76.9524V76.9534C49.7793 76.6904 49.6043 76.9064 49.4343 76.9364C49.4273 77.2264 49.3833 77.5224 49.5533 77.7874Z" fill="#BC8049"/>
<path d="M49.4348 76.9371C49.6028 76.9421 49.7708 76.9481 49.9388 76.9531C49.9178 76.6651 49.7748 76.6101 49.5338 76.7401L49.4858 76.8391L49.4348 76.9371Z" fill="#D2A563"/>
<path d="M48.5305 77.3766C48.5105 77.3546 48.4935 77.3176 48.4695 77.3126C48.3785 77.2936 48.3485 77.3336 48.3955 77.4096C48.4075 77.4296 48.4535 77.4386 48.4815 77.4346C48.5005 77.4316 48.5145 77.3966 48.5305 77.3766Z" fill="#B97F47"/>
<path d="M48.9065 76.4306C48.8755 76.5006 48.8445 76.5706 48.8135 76.6396C48.9735 76.6276 48.9815 76.5476 48.9065 76.4306Z" fill="white"/>
<path d="M50.1501 77.0477C50.1851 77.0467 50.2481 77.0537 50.2501 77.0437C50.2681 76.9737 50.2311 76.9757 50.1521 77.0547L50.1501 77.0477Z" fill="#D2A563"/>
<path d="M49.939 76.953C49.924 77.077 49.966 77.177 50.069 77.25C50.09 77.18 50.117 77.113 50.15 77.048L50.152 77.055C50.081 77.021 50.01 76.987 49.939 76.953Z" fill="#D2A563"/>
<path d="M50.2808 78.8926C50.2438 78.7936 50.2058 78.6946 50.1688 78.5956C49.8468 78.8306 50.2218 78.8016 50.2808 78.8926Z" fill="#E3C57F"/>
</svg>
