<svg width="28" height="27" viewBox="0 0 28 27" fill="none" xmlns="http://www.w3.org/2000/svg">
<path d="M27.4429 13.175V13.801C27.2739 14.685 26.7449 15.445 25.8879 15.772C25.7839 15.812 25.4019 15.941 25.3249 15.941H24.5659L24.5679 24.216C24.4379 25.585 23.3929 26.615 22.0559 26.85H17.2439C16.9029 26.698 16.6599 26.489 16.6159 26.093C16.4829 24.018 16.7939 21.721 16.6179 19.671C16.5679 19.093 16.2079 18.653 15.6429 18.504C15.2039 18.389 12.7999 18.39 12.3799 18.525C11.9439 18.666 11.6119 19.037 11.5029 19.477L11.4899 26.04C11.4469 26.472 11.2459 26.682 10.8629 26.85C9.34889 26.718 7.52789 27.027 6.05089 26.85C4.74989 26.694 3.63989 25.512 3.53789 24.216L3.53989 15.941H2.78189C2.68489 15.941 2.26289 15.791 2.14489 15.742C0.662885 15.127 0.200887 13.206 1.19489 11.957L12.4309 0.725952C13.4329 -0.0940478 14.7139 -0.0700488 15.7019 0.751951L26.8419 11.87C27.1189 12.206 27.3909 12.742 27.4429 13.175Z" fill="#543585"/>
</svg>
