<svg width="37" height="36" viewBox="0 0 37 36" fill="none" xmlns="http://www.w3.org/2000/svg">
<path d="M16.7212 0.615429C30.9532 -0.684571 40.9522 14.4324 33.7942 26.9514C27.7642 37.4974 12.8992 38.8014 5.04917 29.5344C4.15017 28.4724 1.76417 25.5204 4.00017 24.6084C5.86517 23.8474 6.82317 26.6474 7.91217 27.8514C17.6172 38.5784 35.7522 29.3694 32.4732 14.9104C29.0452 -0.202569 6.93917 0.270432 4.31317 16.1634C4.13117 17.2654 4.53917 19.2444 3.12417 19.6894C-0.714829 20.8964 1.49317 13.2784 2.14417 11.6364C4.48617 5.73343 10.3482 1.19743 16.7212 0.615429Z" fill="white"/>
<path d="M16.2507 21.9546L22.3107 18.1656L16.2507 14.3766V21.9546ZM15.5417 10.5386C16.1227 10.4796 16.4917 10.6106 17.0127 10.8356C18.5407 11.4946 23.3117 14.6526 24.7267 15.7526C26.3887 17.0436 26.6127 19.0686 24.9237 20.4386C23.4817 21.6076 18.8747 24.5506 17.2077 25.3536C16.2417 25.8186 15.7947 25.9866 14.7367 25.5736C13.6997 25.1676 13.1467 24.3116 13.0447 23.2246C12.7307 19.8926 13.2587 16.0336 13.0897 12.6466C13.3747 11.4866 14.3427 10.6596 15.5417 10.5386Z" fill="white"/>
</svg>
