<svg width="35" height="41" viewBox="0 0 35 41" fill="none" xmlns="http://www.w3.org/2000/svg">
<path d="M16.7694 1.54923C7.36844 2.28423 2.63744 13.4382 8.64644 20.7752C13.9414 27.2412 24.2624 26.1902 28.1494 18.8152C32.4954 10.5692 26.0194 0.826232 16.7694 1.54923ZM19.1804 0.170235C22.8354 0.489235 26.5794 2.85623 28.6164 5.85223C33.4014 12.8962 30.3914 22.6392 22.4144 25.6022C21.7184 25.8612 20.9754 26.0082 20.2994 26.2782C22.0064 30.1012 23.4564 34.0382 25.1284 37.8752C25.1674 37.9652 25.4724 38.7452 25.5644 38.6752L27.7314 34.6602C27.8894 34.4652 28.2024 34.3592 28.4394 34.4022L32.8284 35.6452L28.0144 23.9922C27.6814 23.0992 28.8594 22.6472 29.2964 23.4292C30.8684 27.4842 32.7414 31.4312 34.3024 35.4892C34.5894 36.2342 35.2824 37.4352 33.8964 37.4162L28.6004 35.8842L25.9524 40.7762C25.7434 41.0592 25.3264 41.0292 25.0254 40.9282L18.8644 26.4352C18.4754 26.3282 18.1094 26.4872 17.7004 26.4832C14.6374 26.4502 11.5874 25.3132 9.24544 23.3662C9.08444 23.2332 8.24444 22.2692 8.08644 22.4122L2.65844 35.6452L7.04644 34.4022C7.64344 34.3392 7.76444 34.6982 8.01944 35.1142C8.71444 36.2452 9.27944 37.5292 9.96044 38.6752L14.4584 27.9392C14.8234 27.0782 16.0334 27.4572 15.7924 28.3962C14.0214 32.2322 12.6974 36.4432 10.8924 40.2432C10.6974 40.6542 10.6484 40.9782 10.1214 40.9942C9.75344 41.0042 9.57344 40.9112 9.40944 40.5812L6.88644 35.8842L1.47244 37.4342C1.01344 37.4662 0.685439 37.1042 0.746439 36.6522L7.11344 21.2362C6.91144 20.6452 6.43644 20.1182 6.12844 19.5442C1.78144 11.4592 7.10944 0.974235 16.3064 0.170235C17.0594 0.104235 18.4274 0.104235 19.1804 0.170235Z" fill="#543584"/>
<path d="M24.3402 19.6738C25.2202 18.7708 26.0702 17.3748 26.4662 16.1768C26.6942 15.4878 26.6892 13.9138 27.5352 13.9078C28.6882 13.8988 28.0352 15.7808 27.8402 16.4328C25.9152 22.8548 18.3102 25.7838 12.4742 22.4538C5.71722 18.5988 5.37422 8.8428 11.8442 4.5218C17.6752 0.628801 25.8002 3.4388 27.8412 10.1348C28.0052 10.6728 28.5012 12.2788 27.9032 12.5888C26.7562 13.1848 26.7132 11.1938 26.5012 10.5168C23.7212 1.6408 10.6962 2.2288 8.76122 11.4078C6.88122 20.3268 17.9392 26.2408 24.3402 19.6738Z" fill="#543584"/>
<path d="M20.3926 9.64107C21.7516 9.95107 23.3466 9.99007 24.6756 10.3461C25.3046 10.5151 25.5066 10.8711 25.2026 11.4861L22.0646 14.7361L22.6866 19.3381C22.5506 19.8771 22.1746 19.9281 21.6896 19.7851C20.5186 19.4381 19.1236 18.3091 17.9596 17.9291C17.8776 17.9021 17.8036 17.8511 17.7096 17.8681L13.8546 19.7631C13.4366 19.9611 12.9616 19.8821 12.8116 19.4051L13.4216 14.7361L10.2836 11.4861C9.95964 10.8051 10.2216 10.4961 10.8766 10.3311C12.2056 9.99707 13.7416 9.93807 15.0936 9.64107L17.1176 5.72307C17.4296 5.22007 18.0536 5.21707 18.3686 5.72307L20.3926 9.64107Z" fill="#543584"/>
</svg>
