<svg width="37" height="35" viewBox="0 0 37 35" fill="none" xmlns="http://www.w3.org/2000/svg">
<g style="mix-blend-mode:multiply">
<path d="M26.9089 3.83802C26.0949 3.03602 24.7079 2.98302 23.7839 3.64202C22.6519 4.44902 20.8979 8.09502 20.9179 9.46902C20.9229 9.79702 21.1309 9.91002 21.4379 9.91702C22.8019 9.94602 26.1179 8.27102 27.0049 7.22102C27.8489 6.22402 27.8549 4.77002 26.9089 3.83802ZM10.4149 3.83802C9.47392 4.76502 9.47792 6.22702 10.3189 7.22102C11.2059 8.27102 14.5229 9.94602 15.8859 9.91702C16.1599 9.91102 16.3759 9.82302 16.3949 9.52802C16.4869 8.09002 14.5309 4.08402 13.1969 3.42402C12.2929 2.97802 11.1339 3.12902 10.4149 3.83802ZM36.6069 15.753C36.4749 16.136 36.0269 16.666 35.5909 16.666H20.9049V12.171H16.4189V16.666H1.73292C1.29292 16.666 0.804919 16.12 0.732919 15.701C0.610919 14.983 0.646919 12.771 0.717919 11.997C0.782919 11.285 1.18792 10.573 1.81692 10.218C1.91492 10.163 2.44592 9.92402 2.50392 9.92402H9.96992C10.0089 9.76102 9.93892 9.80802 9.88092 9.76302C8.69492 8.83802 7.86192 8.13302 7.54892 6.55502C6.59792 1.75902 12.4979 -1.03098 15.6839 2.61802C16.6519 3.72802 18.5919 7.26002 18.5919 8.69502V9.92402H18.7319V8.69502C18.7319 7.24802 20.6649 3.73602 21.6399 2.61802C24.8259 -1.03198 30.7269 1.75702 29.7749 6.55502C29.4659 8.11502 28.6179 8.84702 27.4429 9.76302C27.3849 9.80802 27.3149 9.76102 27.3539 9.92402H34.8199C35.3269 9.92402 36.2199 10.727 36.4099 11.211L36.6069 11.82V15.753Z" fill="#00B7CF"/>
<path d="M16.4188 18.9145V34.6475H5.09784C4.17584 34.6475 2.95984 33.5965 2.95984 32.6455V18.9145H16.4188Z" fill="#00B7CF"/>
<path d="M34.3643 18.9145V32.6455C34.3643 33.5965 33.1483 34.6475 32.2263 34.6475H20.9053V18.9145H34.3643Z" fill="#00B7CF"/>
</g>
</svg>
