<svg width="35" height="34" viewBox="0 0 35 34" fill="none" xmlns="http://www.w3.org/2000/svg">
<g style="mix-blend-mode:multiply">
<path d="M17.125 2.20035C5.53696 2.49435 -1.10504 15.7433 5.76896 25.1823C12.348 34.2143 26.276 32.6603 30.737 22.4513C34.96 12.7863 27.612 1.93435 17.125 2.20035ZM16.511 0.136345C30.268 -0.601655 38.984 14.8423 31.013 26.1853C23.782 36.4763 8.12196 35.2153 2.58796 23.9573C-2.61804 13.3663 4.79596 0.765345 16.511 0.136345Z" fill="#543584"/>
<path d="M10.1844 24.0295C9.68944 23.5495 8.31244 21.9395 8.18244 21.3195C8.02544 20.5755 8.63844 19.9185 9.38644 20.0585C10.0544 20.1835 10.5184 21.2945 10.9724 21.8185C14.3944 25.7655 20.4404 25.8615 23.8834 21.9005C24.2774 21.4465 24.6144 20.7495 24.9714 20.3665C25.6634 19.6235 26.9004 20.2365 26.7804 21.2265C26.7374 21.5775 26.2954 22.1795 26.0814 22.4815C22.4364 27.6285 14.7524 28.4625 10.1844 24.0295Z" fill="#543584"/>
<path d="M22.4222 10.3995C24.9502 10.1305 25.6032 13.8845 23.1612 14.4855C20.2732 15.1955 19.5252 10.7075 22.4222 10.3995Z" fill="#543584"/>
<path d="M12.1042 10.3987C14.5042 10.1677 15.2452 13.5887 13.0472 14.4087C10.0932 15.5107 9.02424 10.6957 12.1042 10.3987Z" fill="#543584"/>
</g>
</svg>
