<svg width="16" height="15" viewBox="0 0 16 15" fill="none" xmlns="http://www.w3.org/2000/svg">
<path d="M10.9435 4.34322C12.3025 4.65322 13.8965 4.69222 15.2265 5.04822C15.8555 5.21722 16.0575 5.57422 15.7535 6.18822L12.6155 9.43822L13.2375 14.0402C13.1015 14.5792 12.7255 14.6302 12.2405 14.4872C11.0695 14.1402 9.67454 13.0112 8.51054 12.6312C8.42854 12.6042 8.35454 12.5532 8.26054 12.5702L4.40554 14.4652C3.98754 14.6632 3.51254 14.5842 3.36254 14.1072L3.97254 9.43822L0.83454 6.18822C0.51054 5.50722 0.772541 5.19822 1.42754 5.03322C2.75654 4.69922 4.29254 4.64022 5.64454 4.34322L7.66854 0.425221C7.98054 -0.0777786 8.60454 -0.0807785 8.91954 0.425221L10.9435 4.34322Z" fill="#00B7CF"/>
</svg>
