<svg width="36" height="34" viewBox="0 0 36 34" fill="none" xmlns="http://www.w3.org/2000/svg">
<g style="mix-blend-mode:multiply">
<path d="M21.6766 14.3711C16.9216 11.8321 13.4516 6.64007 12.4736 0.378071C11.4956 6.64007 8.02563 11.8321 3.27063 14.3711C2.34463 14.8651 0.041626 15.6251 0.041626 15.6251C0.041626 15.6251 2.34463 16.3851 3.27063 16.8791C8.02563 19.4181 11.4956 24.6101 12.4736 30.8721C13.4516 24.6101 16.9216 19.4181 21.6766 16.8791C22.6016 16.3851 24.9056 15.6251 24.9056 15.6251C24.9056 15.6251 22.6016 14.8651 21.6766 14.3711Z" fill="#00A4C2"/>
</g>
<g style="mix-blend-mode:multiply">
<path d="M33.463 26.8734C31.582 25.8694 30.21 23.8154 29.823 21.3384C29.436 23.8154 28.064 25.8694 26.183 26.8734C25.817 27.0684 24.906 27.3694 24.906 27.3694C24.906 27.3694 25.817 27.6704 26.183 27.8654C28.064 28.8694 29.436 30.9234 29.823 33.4004C30.21 30.9234 31.582 28.8694 33.463 27.8654C33.829 27.6704 34.74 27.3694 34.74 27.3694C34.74 27.3694 33.829 27.0684 33.463 26.8734Z" stroke="#00A4C2" stroke-miterlimit="10" stroke-linecap="round" stroke-linejoin="round"/>
</g>
</svg>
